<?xml version="1.0" encoding="UTF-8" standalone="no"?><!DOCTYPE svg PUBLIC "-//W3C//DTD SVG 1.1//EN" "http://www.w3.org/Graphics/SVG/1.1/DTD/svg11.dtd"><svg width="100%" height="100%" viewBox="0 0 280 48" version="1.1" xmlns="http://www.w3.org/2000/svg" xmlns:xlink="http://www.w3.org/1999/xlink" xml:space="preserve" xmlns:serif="http://www.serif.com/" style="fill-rule:evenodd;clip-rule:evenodd;stroke-linejoin:round;stroke-miterlimit:2;"><rect id="Logo-Full" serif:id="Logo Full" x="0" y="0" width="280" height="48" style="fill:none;"/><g><path d="M24.155,0l0.155,0.002l0.155,0.002l0.154,0.004l0.154,0.004l0.154,0.006l0.154,0.006l0.153,0.007l0.153,0.009l0.153,0.009l0.153,0.01l0.152,0.011l0.153,0.012l0.151,0.013l0.152,0.014l0.151,0.015l0.151,0.016l0.151,0.017l0.151,0.017l0.15,0.019l0.15,0.02l0.15,0.02l0.149,0.021l0.149,0.023l0.149,0.023l0.148,0.024l0.148,0.025l0.148,0.026l0.148,0.027l0.147,0.028l0.147,0.028l0.146,0.03l0.147,0.03l0.145,0.032l0.146,0.032l0.145,0.033l0.145,0.034l0.145,0.035l0.144,0.036l0.144,0.036l0.144,0.038l0.143,0.038l0.143,0.039l0.142,0.04l0.142,0.041l0.142,0.042l0.142,0.042l0.141,0.044l0.14,0.044l0.141,0.045l0.14,0.046l0.139,0.047l0.139,0.048l0.139,0.048l0.138,0.049l0.138,0.05l0.138,0.051l0.137,0.052l0.137,0.052l0.137,0.054l0.136,0.054l0.135,0.055l0.135,0.056l0.135,0.056l0.135,0.058l0.133,0.058l0.134,0.059l0.133,0.059l0.133,0.061l0.132,0.061l0.132,0.062l0.131,0.063l0.131,0.064l0.131,0.064l0.13,0.065l0.129,0.066l0.129,0.067l0.129,0.067l0.128,0.069l0.128,0.068l0.127,0.07l0.127,0.071l0.126,0.071l0.126,0.072l0.126,0.072l0.125,0.074l0.124,0.074l0.124,0.075l0.123,0.075l0.123,0.076l0.123,0.077l0.122,0.078l0.121,0.079l0.121,0.079l0.121,0.08l0.12,0.08l0.119,0.081l0.119,0.082l0.119,0.083l0.117,0.083l0.118,0.084l0.117,0.085l0.116,0.085l0.116,0.087l0.115,0.086l0.115,0.088l0.114,0.088l0.114,0.089l0.113,0.089l0.112,0.09l0.112,0.091l0.112,0.091l0.11,0.092l0.111,0.093l0.109,0.093l0.11,0.094l0.108,0.095l0.108,0.095l0.108,0.096l0.107,0.097l0.106,0.097l0.106,0.098l0.105,0.098l0.104,0.099l0.104,0.1l0.103,0.1l0.103,0.101l0.102,0.102l0.102,0.102l0.101,0.103l0.1,0.103l0.1,0.104l0.099,0.104l0.098,0.105l0.098,0.106l0.097,0.106l0.097,0.107l0.096,0.108l0.095,0.108l0.095,0.108l0.094,0.11l0.093,0.109l0.093,0.111l0.092,0.11l0.091,0.112l0.091,0.112l0.09,0.112l0.089,0.113l0.089,0.114l0.088,0.114l0.088,0.115l0.086,0.115l0.087,0.116l0.085,0.116l0.085,0.117l0.084,0.118l0.083,0.117l0.083,0.119l0.082,0.119l0.081,0.119l0.08,0.12l0.08,0.121l0.079,0.121l0.079,0.121l0.078,0.122l0.077,0.123l0.076,0.123l0.075,0.123l0.075,0.124l0.074,0.124l0.074,0.125l0.072,0.126l0.072,0.126l0.071,0.126l0.071,0.127l0.07,0.127l0.068,0.128l0.069,0.128l0.067,0.129l0.067,0.129l0.066,0.129l0.065,0.13l0.064,0.131l0.064,0.131l0.063,0.131l0.062,0.132l0.061,0.132l0.061,0.133l0.059,0.133l0.059,0.134l0.058,0.133l0.058,0.135l0.056,0.135l0.056,0.135l0.055,0.135l0.054,0.136l0.054,0.137l0.052,0.137l0.052,0.137l0.051,0.138l0.05,0.138l0.049,0.138l0.048,0.139l0.048,0.139l0.047,0.139l0.046,0.14l0.045,0.141l0.044,0.14l0.044,0.141l0.042,0.142l0.042,0.142l0.041,0.142l0.04,0.142l0.039,0.143l0.038,0.143l0.038,0.144l0.036,0.144l0.036,0.144l0.035,0.145l0.034,0.145l0.033,0.145l0.032,0.146l0.032,0.145l0.03,0.147l0.03,0.146l0.028,0.147l0.028,0.147l0.027,0.148l0.026,0.148l0.025,0.148l0.024,0.148l0.023,0.149l0.023,0.149l0.021,0.149l0.02,0.15l0.02,0.15l0.019,0.15l0.017,0.151l0.017,0.151l0.016,0.151l0.015,0.151l0.014,0.152l0.013,0.151l0.012,0.153l0.011,0.152l0.01,0.153l0.009,0.153l0.009,0.153l0.007,0.153l0.006,0.154l0.006,0.154l0.004,0.154l0.004,0.154l0.002,0.155l0.002,0.155l0,0.155l0,0.155l-0.002,0.155l-0.002,0.155l-0.004,0.154l-0.004,0.154l-0.006,0.154l-0.006,0.154l-0.007,0.153l-0.009,0.153l-0.009,0.153l-0.01,0.153l-0.011,0.152l-0.012,0.153l-0.013,0.151l-0.014,0.152l-0.015,0.151l-0.016,0.151l-0.017,0.151l-0.017,0.151l-0.019,0.15l-0.02,0.15l-0.02,0.15l-0.021,0.149l-0.023,0.149l-0.023,0.149l-0.024,0.148l-0.025,0.148l-0.026,0.148l-0.027,0.148l-0.028,0.147l-0.028,0.147l-0.03,0.146l-0.03,0.147l-0.032,0.145l-0.032,0.146l-0.033,0.145l-0.034,0.145l-0.035,0.145l-0.036,0.144l-0.036,0.144l-0.038,0.144l-0.038,0.143l-0.039,0.143l-0.04,0.142l-0.041,0.142l-0.042,0.142l-0.042,0.142l-0.044,0.141l-0.044,0.14l-0.045,0.141l-0.046,0.14l-0.047,0.139l-0.048,0.139l-0.048,0.139l-0.049,0.138l-0.05,0.138l-0.051,0.138l-0.052,0.137l-0.052,0.137l-0.054,0.137l-0.054,0.136l-0.055,0.135l-0.056,0.135l-0.056,0.135l-0.058,0.135l-0.058,0.133l-0.059,0.134l-0.059,0.133l-0.061,0.133l-0.061,0.132l-0.062,0.132l-0.063,0.131l-0.064,0.131l-0.064,0.131l-0.065,0.13l-0.066,0.129l-0.067,0.129l-0.067,0.129l-0.069,0.128l-0.068,0.128l-0.07,0.127l-0.071,0.127l-0.071,0.126l-0.072,0.126l-0.072,0.126l-0.074,0.125l-0.074,0.124l-0.075,0.124l-0.075,0.123l-0.076,0.123l-0.077,0.123l-0.078,0.122l-0.079,0.121l-0.079,0.121l-0.08,0.121l-0.08,0.12l-0.081,0.119l-0.082,0.119l-0.083,0.119l-0.083,0.117l-0.084,0.118l-0.085,0.117l-0.085,0.116l-0.087,0.116l-0.086,0.115l-0.088,0.115l-0.088,0.114l-0.089,0.114l-0.089,0.113l-0.09,0.112l-0.091,0.112l-0.091,0.112l-0.092,0.11l-0.093,0.111l-0.093,0.109l-0.094,0.11l-0.095,0.108l-0.095,0.108l-0.096,0.108l-0.097,0.107l-0.097,0.106l-0.098,0.106l-0.098,0.105l-0.099,0.104l-0.1,0.104l-0.1,0.103l-0.101,0.103l-0.102,0.102l-0.102,0.102l-0.103,0.101l-0.103,0.1l-0.104,0.1l-0.104,0.099l-0.105,0.098l-0.106,0.098l-0.106,0.097l-0.107,0.097l-0.108,0.096l-0.108,0.095l-0.108,0.095l-0.11,0.094l-0.109,0.093l-0.111,0.093l-0.11,0.092l-0.112,0.091l-0.112,0.091l-0.112,0.09l-0.113,0.089l-0.114,0.089l-0.114,0.088l-0.115,0.088l-0.115,0.086l-0.116,0.087l-0.116,0.085l-0.117,0.085l-0.118,0.084l-0.117,0.083l-0.119,0.083l-0.119,0.082l-0.119,0.081l-0.12,0.08l-0.121,0.08l-0.121,0.079l-0.121,0.079l-0.122,0.078l-0.123,0.077l-0.123,0.076l-0.123,0.075l-0.124,0.075l-0.124,0.074l-0.125,0.074l-0.126,0.072l-0.126,0.072l-0.126,0.071l-0.127,0.071l-0.127,0.07l-0.128,0.068l-0.128,0.069l-0.129,0.067l-0.129,0.067l-0.129,0.066l-0.13,0.065l-0.131,0.064l-0.131,0.064l-0.131,0.063l-0.132,0.062l-0.132,0.061l-0.133,0.061l-0.133,0.059l-0.134,0.059l-0.133,0.058l-0.135,0.058l-0.135,0.056l-0.135,0.056l-0.135,0.055l-0.136,0.054l-0.137,0.054l-0.137,0.052l-0.137,0.052l-0.138,0.051l-0.138,0.05l-0.138,0.049l-0.139,0.048l-0.139,0.048l-0.139,0.047l-0.14,0.046l-0.141,0.045l-0.14,0.044l-0.141,0.044l-0.142,0.042l-0.142,0.042l-0.142,0.041l-0.142,0.04l-0.143,0.039l-0.143,0.038l-0.144,0.038l-0.144,0.036l-0.144,0.036l-0.145,0.035l-0.145,0.034l-0.145,0.033l-0.146,0.032l-0.145,0.032l-0.147,0.03l-0.146,0.03l-0.147,0.028l-0.147,0.028l-0.148,0.027l-0.148,0.026l-0.148,0.025l-0.148,0.024l-0.149,0.023l-0.149,0.023l-0.149,0.021l-0.15,0.02l-0.15,0.02l-0.15,0.019l-0.151,0.017l-0.151,0.017l-0.151,0.016l-0.151,0.015l-0.152,0.014l-0.151,0.013l-0.153,0.012l-0.152,0.011l-0.153,0.01l-0.153,0.009l-0.153,0.009l-0.153,0.007l-0.154,0.006l-0.154,0.006l-0.154,0.004l-0.154,0.004l-0.155,0.002l-0.155,0.002l-0.155,0l-0.155,0l-0.155,-0.002l-0.155,-0.002l-0.154,-0.004l-0.154,-0.004l-0.154,-0.006l-0.154,-0.006l-0.153,-0.007l-0.153,-0.009l-0.153,-0.009l-0.153,-0.01l-0.152,-0.011l-0.153,-0.012l-0.151,-0.013l-0.152,-0.014l-0.151,-0.015l-0.151,-0.016l-0.151,-0.017l-0.151,-0.017l-0.15,-0.019l-0.15,-0.02l-0.15,-0.02l-0.149,-0.021l-0.149,-0.023l-0.149,-0.023l-0.148,-0.024l-0.148,-0.025l-0.148,-0.026l-0.148,-0.027l-0.147,-0.028l-0.147,-0.028l-0.146,-0.03l-0.147,-0.03l-0.145,-0.032l-0.146,-0.032l-0.145,-0.033l-0.145,-0.034l-0.145,-0.035l-0.144,-0.036l-0.144,-0.036l-0.144,-0.038l-0.143,-0.038l-0.143,-0.039l-0.142,-0.04l-0.142,-0.041l-0.142,-0.042l-0.142,-0.042l-0.141,-0.044l-0.14,-0.044l-0.141,-0.045l-0.14,-0.046l-0.139,-0.047l-0.139,-0.048l-0.139,-0.048l-0.138,-0.049l-0.138,-0.05l-0.138,-0.051l-0.137,-0.052l-0.137,-0.052l-0.137,-0.054l-0.136,-0.054l-0.135,-0.055l-0.135,-0.056l-0.135,-0.056l-0.135,-0.058l-0.133,-0.058l-0.134,-0.059l-0.133,-0.059l-0.133,-0.061l-0.132,-0.061l-0.132,-0.062l-0.131,-0.063l-0.131,-0.064l-0.131,-0.064l-0.13,-0.065l-0.129,-0.066l-0.129,-0.067l-0.129,-0.067l-0.128,-0.069l-0.128,-0.068l-0.127,-0.07l-0.127,-0.071l-0.126,-0.071l-0.126,-0.072l-0.126,-0.072l-0.125,-0.074l-0.124,-0.074l-0.124,-0.075l-0.123,-0.075l-0.123,-0.076l-0.123,-0.077l-0.122,-0.078l-0.121,-0.079l-0.121,-0.079l-0.121,-0.08l-0.12,-0.08l-0.119,-0.081l-0.119,-0.082l-0.119,-0.083l-0.117,-0.083l-0.118,-0.084l-0.117,-0.085l-0.116,-0.085l-0.116,-0.087l-0.115,-0.086l-0.115,-0.088l-0.114,-0.088l-0.114,-0.089l-0.113,-0.089l-0.112,-0.09l-0.112,-0.091l-0.112,-0.091l-0.11,-0.092l-0.111,-0.093l-0.109,-0.093l-0.11,-0.094l-0.108,-0.095l-0.108,-0.095l-0.108,-0.096l-0.107,-0.097l-0.106,-0.097l-0.106,-0.098l-0.105,-0.098l-0.104,-0.099l-0.104,-0.1l-0.103,-0.1l-0.103,-0.101l-0.102,-0.102l-0.102,-0.102l-0.101,-0.103l-0.1,-0.103l-0.1,-0.104l-0.099,-0.104l-0.098,-0.105l-0.098,-0.106l-0.097,-0.106l-0.097,-0.107l-0.096,-0.108l-0.095,-0.108l-0.095,-0.108l-0.094,-0.11l-0.093,-0.109l-0.093,-0.111l-0.092,-0.11l-0.091,-0.112l-0.091,-0.112l-0.09,-0.112l-0.089,-0.113l-0.089,-0.114l-0.088,-0.114l-0.088,-0.115l-0.086,-0.115l-0.087,-0.116l-0.085,-0.116l-0.085,-0.117l-0.084,-0.118l-0.083,-0.117l-0.083,-0.119l-0.082,-0.119l-0.081,-0.119l-0.08,-0.12l-0.08,-0.121l-0.079,-0.121l-0.079,-0.121l-0.078,-0.122l-0.077,-0.123l-0.076,-0.123l-0.075,-0.123l-0.075,-0.124l-0.074,-0.124l-0.074,-0.125l-0.072,-0.126l-0.072,-0.126l-0.071,-0.126l-0.071,-0.127l-0.07,-0.127l-0.068,-0.128l-0.069,-0.128l-0.067,-0.129l-0.067,-0.129l-0.066,-0.129l-0.065,-0.13l-0.064,-0.131l-0.064,-0.131l-0.063,-0.131l-0.062,-0.132l-0.061,-0.132l-0.061,-0.133l-0.059,-0.133l-0.059,-0.134l-0.058,-0.133l-0.058,-0.135l-0.056,-0.135l-0.056,-0.135l-0.055,-0.135l-0.054,-0.136l-0.054,-0.137l-0.052,-0.137l-0.052,-0.137l-0.051,-0.138l-0.05,-0.138l-0.049,-0.138l-0.048,-0.139l-0.048,-0.139l-0.047,-0.139l-0.046,-0.14l-0.045,-0.141l-0.044,-0.14l-0.044,-0.141l-0.042,-0.142l-0.042,-0.142l-0.041,-0.142l-0.04,-0.142l-0.039,-0.143l-0.038,-0.143l-0.038,-0.144l-0.036,-0.144l-0.036,-0.144l-0.035,-0.145l-0.034,-0.145l-0.033,-0.145l-0.032,-0.146l-0.032,-0.145l-0.03,-0.147l-0.03,-0.146l-0.028,-0.147l-0.028,-0.147l-0.027,-0.148l-0.026,-0.148l-0.025,-0.148l-0.024,-0.148l-0.023,-0.149l-0.023,-0.149l-0.021,-0.149l-0.02,-0.15l-0.02,-0.15l-0.019,-0.15l-0.017,-0.151l-0.017,-0.151l-0.016,-0.151l-0.015,-0.151l-0.014,-0.152l-0.013,-0.151l-0.012,-0.153l-0.011,-0.152l-0.01,-0.153l-0.009,-0.153l-0.009,-0.153l-0.007,-0.153l-0.006,-0.154l-0.006,-0.154l-0.004,-0.154l-0.004,-0.154l-0.002,-0.155l-0.002,-0.155l0,-0.155l0,-0.155l0.002,-0.155l0.002,-0.155l0.004,-0.154l0.004,-0.154l0.006,-0.154l0.006,-0.154l0.007,-0.153l0.009,-0.153l0.009,-0.153l0.01,-0.153l0.011,-0.152l0.012,-0.153l0.013,-0.151l0.014,-0.152l0.015,-0.151l0.016,-0.151l0.017,-0.151l0.017,-0.151l0.019,-0.15l0.02,-0.15l0.02,-0.15l0.021,-0.149l0.023,-0.149l0.023,-0.149l0.024,-0.148l0.025,-0.148l0.026,-0.148l0.027,-0.148l0.028,-0.147l0.028,-0.147l0.03,-0.146l0.03,-0.147l0.032,-0.145l0.032,-0.146l0.033,-0.145l0.034,-0.145l0.035,-0.145l0.036,-0.144l0.036,-0.144l0.038,-0.144l0.038,-0.143l0.039,-0.143l0.04,-0.142l0.041,-0.142l0.042,-0.142l0.042,-0.142l0.044,-0.141l0.044,-0.14l0.045,-0.141l0.046,-0.14l0.047,-0.139l0.048,-0.139l0.048,-0.139l0.049,-0.138l0.05,-0.138l0.051,-0.138l0.052,-0.137l0.052,-0.137l0.054,-0.137l0.054,-0.136l0.055,-0.135l0.056,-0.135l0.056,-0.135l0.058,-0.135l0.058,-0.133l0.059,-0.134l0.059,-0.133l0.061,-0.133l0.061,-0.132l0.062,-0.132l0.063,-0.131l0.064,-0.131l0.064,-0.131l0.065,-0.13l0.066,-0.129l0.067,-0.129l0.067,-0.129l0.069,-0.128l0.068,-0.128l0.07,-0.127l0.071,-0.127l0.071,-0.126l0.072,-0.126l0.072,-0.126l0.074,-0.125l0.074,-0.124l0.075,-0.124l0.075,-0.123l0.076,-0.123l0.077,-0.123l0.078,-0.122l0.079,-0.121l0.079,-0.121l0.08,-0.121l0.08,-0.12l0.081,-0.119l0.082,-0.119l0.083,-0.119l0.083,-0.117l0.084,-0.118l0.085,-0.117l0.085,-0.116l0.087,-0.116l0.086,-0.115l0.088,-0.115l0.088,-0.114l0.089,-0.114l0.089,-0.113l0.09,-0.112l0.091,-0.112l0.091,-0.112l0.092,-0.11l0.093,-0.111l0.093,-0.109l0.094,-0.11l0.095,-0.108l0.095,-0.108l0.096,-0.108l0.097,-0.107l0.097,-0.106l0.098,-0.106l0.098,-0.105l0.099,-0.104l0.1,-0.104l0.1,-0.103l0.101,-0.103l0.102,-0.102l0.102,-0.102l0.103,-0.101l0.103,-0.1l0.104,-0.1l0.104,-0.099l0.105,-0.098l0.106,-0.098l0.106,-0.097l0.107,-0.097l0.108,-0.096l0.108,-0.095l0.108,-0.095l0.11,-0.094l0.109,-0.093l0.111,-0.093l0.11,-0.092l0.112,-0.091l0.112,-0.091l0.112,-0.09l0.113,-0.089l0.114,-0.089l0.114,-0.088l0.115,-0.088l0.115,-0.086l0.116,-0.087l0.116,-0.085l0.117,-0.085l0.118,-0.084l0.117,-0.083l0.119,-0.083l0.119,-0.082l0.119,-0.081l0.12,-0.08l0.121,-0.08l0.121,-0.079l0.121,-0.079l0.122,-0.078l0.123,-0.077l0.123,-0.076l0.123,-0.075l0.124,-0.075l0.124,-0.074l0.125,-0.074l0.126,-0.072l0.126,-0.072l0.126,-0.071l0.127,-0.071l0.127,-0.07l0.128,-0.068l0.128,-0.069l0.129,-0.067l0.129,-0.067l0.129,-0.066l0.13,-0.065l0.131,-0.064l0.131,-0.064l0.131,-0.063l0.132,-0.062l0.132,-0.061l0.133,-0.061l0.133,-0.059l0.134,-0.059l0.133,-0.058l0.135,-0.058l0.135,-0.056l0.135,-0.056l0.135,-0.055l0.136,-0.054l0.137,-0.054l0.137,-0.052l0.137,-0.052l0.138,-0.051l0.138,-0.05l0.138,-0.049l0.139,-0.048l0.139,-0.048l0.139,-0.047l0.14,-0.046l0.141,-0.045l0.14,-0.044l0.141,-0.044l0.142,-0.042l0.142,-0.042l0.142,-0.041l0.142,-0.04l0.143,-0.039l0.143,-0.038l0.144,-0.038l0.144,-0.036l0.144,-0.036l0.145,-0.035l0.145,-0.034l0.145,-0.033l0.146,-0.032l0.145,-0.032l0.147,-0.03l0.146,-0.03l0.147,-0.028l0.147,-0.028l0.148,-0.027l0.148,-0.026l0.148,-0.025l0.148,-0.024l0.149,-0.023l0.149,-0.023l0.149,-0.021l0.15,-0.02l0.15,-0.02l0.15,-0.019l0.151,-0.017l0.151,-0.017l0.151,-0.016l0.151,-0.015l0.152,-0.014l0.151,-0.013l0.153,-0.012l0.152,-0.011l0.153,-0.01l0.153,-0.009l0.153,-0.009l0.153,-0.007l0.154,-0.006l0.154,-0.006l0.154,-0.004l0.154,-0.004l0.155,-0.002l0.155,-0.002l0.155,0l0.155,0Zm-0.278,5l-0.124,0.002l-0.123,0.002l-0.122,0.002l-0.123,0.004l-0.122,0.004l-0.122,0.005l-0.122,0.006l-0.121,0.006l-0.122,0.008l-0.121,0.008l-0.121,0.009l-0.12,0.009l-0.121,0.011l-0.12,0.011l-0.12,0.011l-0.119,0.013l-0.12,0.013l-0.119,0.014l-0.119,0.015l-0.118,0.015l-0.119,0.017l-0.118,0.017l-0.118,0.017l-0.117,0.019l-0.118,0.019l-0.117,0.02l-0.117,0.02l-0.117,0.021l-0.116,0.022l-0.116,0.023l-0.116,0.023l-0.115,0.024l-0.116,0.025l-0.115,0.026l-0.115,0.026l-0.114,0.027l-0.114,0.027l-0.114,0.028l-0.114,0.029l-0.113,0.03l-0.114,0.03l-0.112,0.031l-0.113,0.032l-0.112,0.032l-0.112,0.033l-0.112,0.033l-0.111,0.035l-0.111,0.035l-0.111,0.035l-0.111,0.037l-0.11,0.037l-0.11,0.037l-0.11,0.039l-0.109,0.038l-0.109,0.04l-0.109,0.04l-0.108,0.041l-0.108,0.042l-0.108,0.042l-0.108,0.043l-0.107,0.043l-0.107,0.044l-0.106,0.045l-0.106,0.045l-0.106,0.046l-0.106,0.047l-0.105,0.047l-0.105,0.048l-0.104,0.048l-0.105,0.049l-0.104,0.05l-0.103,0.05l-0.103,0.051l-0.103,0.052l-0.103,0.052l-0.102,0.053l-0.102,0.053l-0.101,0.054l-0.101,0.055l-0.101,0.055l-0.1,0.055l-0.1,0.057l-0.1,0.057l-0.099,0.057l-0.099,0.058l-0.099,0.059l-0.098,0.059l-0.097,0.06l-0.098,0.06l-0.097,0.061l-0.096,0.062l-0.097,0.062l-0.096,0.063l-0.095,0.063l-0.095,0.064l-0.095,0.064l-0.094,0.065l-0.094,0.066l-0.093,0.066l-0.093,0.066l-0.093,0.067l-0.092,0.068l-0.092,0.068l-0.091,0.069l-0.091,0.069l-0.091,0.07l-0.09,0.071l-0.089,0.071l-0.09,0.071l-0.088,0.072l-0.089,0.072l-0.088,0.073l-0.087,0.074l-0.087,0.074l-0.087,0.075l-0.086,0.075l-0.085,0.075l-0.086,0.076l-0.084,0.077l-0.085,0.077l-0.084,0.077l-0.083,0.079l-0.083,0.078l-0.082,0.079l-0.082,0.08l-0.082,0.08l-0.081,0.08l-0.08,0.081l-0.08,0.082l-0.08,0.082l-0.079,0.082l-0.078,0.083l-0.079,0.083l-0.077,0.084l-0.077,0.085l-0.077,0.084l-0.076,0.086l-0.075,0.085l-0.075,0.086l-0.075,0.087l-0.074,0.087l-0.074,0.087l-0.073,0.088l-0.072,0.089l-0.072,0.088l-0.071,0.09l-0.071,0.089l-0.071,0.09l-0.07,0.091l-0.069,0.091l-0.069,0.091l-0.068,0.092l-0.068,0.092l-0.067,0.093l-0.066,0.093l-0.066,0.093l-0.066,0.094l-0.065,0.094l-0.064,0.095l-0.064,0.095l-0.063,0.095l-0.063,0.096l-0.062,0.097l-0.062,0.096l-0.061,0.097l-0.06,0.098l-0.06,0.097l-0.059,0.098l-0.059,0.099l-0.058,0.099l-0.057,0.099l-0.057,0.1l-0.057,0.1l-0.055,0.1l-0.055,0.101l-0.055,0.101l-0.054,0.101l-0.053,0.102l-0.053,0.102l-0.052,0.103l-0.052,0.103l-0.051,0.103l-0.05,0.103l-0.05,0.104l-0.049,0.105l-0.048,0.104l-0.048,0.105l-0.047,0.105l-0.047,0.106l-0.046,0.106l-0.045,0.106l-0.045,0.106l-0.044,0.107l-0.043,0.107l-0.043,0.108l-0.042,0.108l-0.042,0.108l-0.041,0.108l-0.04,0.109l-0.04,0.109l-0.038,0.109l-0.039,0.11l-0.037,0.11l-0.037,0.11l-0.037,0.111l-0.035,0.111l-0.035,0.111l-0.035,0.111l-0.033,0.112l-0.033,0.112l-0.032,0.112l-0.032,0.113l-0.031,0.112l-0.03,0.114l-0.03,0.113l-0.029,0.114l-0.028,0.114l-0.027,0.114l-0.027,0.114l-0.026,0.115l-0.026,0.115l-0.025,0.116l-0.024,0.115l-0.023,0.116l-0.023,0.116l-0.022,0.116l-0.021,0.117l-0.02,0.117l-0.02,0.117l-0.019,0.118l-0.019,0.117l-0.017,0.118l-0.017,0.118l-0.017,0.119l-0.015,0.118l-0.015,0.119l-0.014,0.119l-0.013,0.12l-0.013,0.119l-0.011,0.12l-0.011,0.12l-0.011,0.121l-0.009,0.12l-0.009,0.121l-0.008,0.121l-0.008,0.122l-0.006,0.121l-0.006,0.122l-0.005,0.122l-0.004,0.122l-0.004,0.123l-0.002,0.122l-0.002,0.123l-0.002,0.124l0,0.123l0,0.123l0.002,0.124l0.002,0.123l0.002,0.122l0.004,0.123l0.004,0.122l0.005,0.122l0.006,0.122l0.006,0.121l0.008,0.122l0.008,0.121l0.009,0.121l0.009,0.12l0.011,0.121l0.011,0.12l0.011,0.12l0.013,0.119l0.013,0.12l0.014,0.119l0.015,0.119l0.015,0.118l0.017,0.119l0.017,0.118l0.017,0.118l0.019,0.117l0.019,0.118l0.02,0.117l0.02,0.117l0.021,0.117l0.022,0.116l0.023,0.116l0.023,0.116l0.024,0.115l0.025,0.116l0.026,0.115l0.026,0.115l0.027,0.114l0.027,0.114l0.028,0.114l0.029,0.114l0.03,0.113l0.03,0.114l0.031,0.112l0.032,0.113l0.032,0.112l0.033,0.112l0.033,0.112l0.035,0.111l0.035,0.111l0.035,0.111l0.037,0.111l0.037,0.11l0.037,0.11l0.039,0.11l0.038,0.109l0.04,0.109l0.04,0.109l0.041,0.108l0.042,0.108l0.042,0.108l0.043,0.108l0.043,0.107l0.044,0.107l0.045,0.106l0.045,0.106l0.046,0.106l0.047,0.106l0.047,0.105l0.048,0.105l0.048,0.104l0.049,0.105l0.05,0.104l0.05,0.103l0.051,0.103l0.052,0.103l0.052,0.103l0.053,0.102l0.053,0.102l0.054,0.101l0.055,0.101l0.055,0.101l0.055,0.1l0.057,0.1l0.057,0.1l0.057,0.099l0.058,0.099l0.059,0.099l0.059,0.098l0.06,0.097l0.06,0.098l0.061,0.097l0.062,0.096l0.062,0.097l0.063,0.096l0.063,0.095l0.064,0.095l0.064,0.095l0.065,0.094l0.066,0.094l0.066,0.093l0.066,0.093l0.067,0.093l0.068,0.092l0.068,0.092l0.069,0.091l0.069,0.091l0.07,0.091l0.071,0.09l0.071,0.089l0.071,0.09l0.072,0.088l0.072,0.089l0.073,0.088l0.074,0.087l0.074,0.087l0.075,0.087l0.075,0.086l0.075,0.085l0.076,0.086l0.077,0.084l0.077,0.085l0.077,0.084l0.079,0.083l0.078,0.083l0.079,0.082l0.08,0.082l0.08,0.082l0.08,0.081l0.081,0.08l0.082,0.08l0.082,0.08l0.082,0.079l0.083,0.078l0.083,0.079l0.084,0.077l0.085,0.077l0.084,0.077l0.086,0.076l0.085,0.075l0.086,0.075l0.087,0.075l0.087,0.074l0.087,0.074l0.088,0.073l0.089,0.072l0.088,0.072l0.09,0.071l0.089,0.071l0.09,0.071l0.091,0.07l0.091,0.069l0.091,0.069l0.092,0.068l0.092,0.068l0.093,0.067l0.093,0.066l0.093,0.066l0.094,0.066l0.094,0.065l0.095,0.064l0.095,0.064l0.095,0.063l0.096,0.063l0.097,0.062l0.096,0.062l0.097,0.061l0.098,0.06l0.097,0.06l0.098,0.059l0.099,0.059l0.099,0.058l0.099,0.057l0.1,0.057l0.1,0.057l0.1,0.055l0.101,0.055l0.101,0.055l0.101,0.054l0.102,0.053l0.102,0.053l0.103,0.052l0.103,0.052l0.103,0.051l0.103,0.05l0.104,0.05l0.105,0.049l0.104,0.048l0.105,0.048l0.105,0.047l0.106,0.047l0.106,0.046l0.106,0.045l0.106,0.045l0.107,0.044l0.107,0.043l0.108,0.043l0.108,0.042l0.108,0.042l0.108,0.041l0.109,0.04l0.109,0.04l0.109,0.038l0.11,0.039l0.11,0.037l0.11,0.037l0.111,0.037l0.111,0.035l0.111,0.035l0.111,0.035l0.112,0.033l0.112,0.033l0.112,0.032l0.113,0.032l0.112,0.031l0.114,0.03l0.113,0.03l0.114,0.029l0.114,0.028l0.114,0.027l0.114,0.027l0.115,0.026l0.115,0.026l0.116,0.025l0.115,0.024l0.116,0.023l0.116,0.023l0.116,0.022l0.117,0.021l0.117,0.02l0.117,0.02l0.118,0.019l0.117,0.019l0.118,0.017l0.118,0.017l0.119,0.017l0.118,0.015l0.119,0.015l0.119,0.014l0.12,0.013l0.119,0.013l0.12,0.011l0.12,0.011l0.121,0.011l0.12,0.009l0.121,0.009l0.121,0.008l0.122,0.008l0.121,0.006l0.122,0.006l0.122,0.005l0.122,0.004l0.123,0.004l0.123,0.002l0.122,0.002l0.124,0.002l0.123,0l0.123,0l0.124,-0.002l0.122,-0.002l0.123,-0.002l0.123,-0.004l0.122,-0.004l0.122,-0.005l0.122,-0.006l0.121,-0.006l0.122,-0.008l0.121,-0.008l0.121,-0.009l0.12,-0.009l0.121,-0.011l0.12,-0.011l0.12,-0.011l0.119,-0.013l0.12,-0.013l0.119,-0.014l0.119,-0.015l0.118,-0.015l0.119,-0.017l0.118,-0.017l0.118,-0.017l0.117,-0.019l0.118,-0.019l0.117,-0.02l0.117,-0.02l0.117,-0.021l0.116,-0.022l0.116,-0.023l0.116,-0.023l0.115,-0.024l0.116,-0.025l0.115,-0.026l0.115,-0.026l0.114,-0.027l0.114,-0.027l0.114,-0.028l0.114,-0.029l0.113,-0.03l0.114,-0.03l0.112,-0.031l0.113,-0.032l0.112,-0.032l0.112,-0.033l0.112,-0.033l0.111,-0.035l0.111,-0.035l0.111,-0.035l0.111,-0.037l0.11,-0.037l0.11,-0.037l0.11,-0.039l0.109,-0.038l0.109,-0.04l0.109,-0.04l0.108,-0.041l0.108,-0.042l0.108,-0.042l0.108,-0.043l0.107,-0.043l0.107,-0.044l0.106,-0.045l0.106,-0.045l0.106,-0.046l0.106,-0.047l0.105,-0.047l0.105,-0.048l0.104,-0.048l0.105,-0.049l0.104,-0.05l0.103,-0.05l0.103,-0.051l0.103,-0.052l0.103,-0.052l0.102,-0.053l0.102,-0.053l0.101,-0.054l0.101,-0.055l0.101,-0.055l0.1,-0.055l0.1,-0.057l0.1,-0.057l0.099,-0.057l0.099,-0.058l0.099,-0.059l0.098,-0.059l0.097,-0.06l0.098,-0.06l0.097,-0.061l0.096,-0.062l0.097,-0.062l0.096,-0.063l0.095,-0.063l0.095,-0.064l0.095,-0.064l0.094,-0.065l0.094,-0.066l0.093,-0.066l0.093,-0.066l0.093,-0.067l0.092,-0.068l0.092,-0.068l0.091,-0.069l0.091,-0.069l0.091,-0.07l0.09,-0.071l0.089,-0.071l0.09,-0.071l0.088,-0.072l0.089,-0.072l0.088,-0.073l0.087,-0.074l0.087,-0.074l0.087,-0.075l0.086,-0.075l0.085,-0.075l0.086,-0.076l0.084,-0.077l0.085,-0.077l0.084,-0.077l0.083,-0.079l0.083,-0.078l0.082,-0.079l0.082,-0.08l0.082,-0.08l0.081,-0.08l0.08,-0.081l0.08,-0.082l0.08,-0.082l0.079,-0.082l0.078,-0.083l0.079,-0.083l0.077,-0.084l0.077,-0.085l0.077,-0.084l0.076,-0.086l0.075,-0.085l0.075,-0.086l0.075,-0.087l0.074,-0.087l0.074,-0.087l0.073,-0.088l0.072,-0.089l0.072,-0.088l0.071,-0.09l0.071,-0.089l0.071,-0.09l0.07,-0.091l0.069,-0.091l0.069,-0.091l0.068,-0.092l0.068,-0.092l0.067,-0.093l0.066,-0.093l0.066,-0.093l0.066,-0.094l0.065,-0.094l0.064,-0.095l0.064,-0.095l0.063,-0.095l0.063,-0.096l0.062,-0.097l0.062,-0.096l0.061,-0.097l0.06,-0.098l0.06,-0.097l0.059,-0.098l0.059,-0.099l0.058,-0.099l0.057,-0.099l0.057,-0.1l0.057,-0.1l0.055,-0.1l0.055,-0.101l0.055,-0.101l0.054,-0.101l0.053,-0.102l0.053,-0.102l0.052,-0.103l0.052,-0.103l0.051,-0.103l0.05,-0.103l0.05,-0.104l0.049,-0.105l0.048,-0.104l0.048,-0.105l0.047,-0.105l0.047,-0.106l0.046,-0.106l0.045,-0.106l0.045,-0.106l0.044,-0.107l0.043,-0.107l0.043,-0.108l0.042,-0.108l0.042,-0.108l0.041,-0.108l0.04,-0.109l0.04,-0.109l0.038,-0.109l0.039,-0.11l0.037,-0.11l0.037,-0.11l0.037,-0.111l0.035,-0.111l0.035,-0.111l0.035,-0.111l0.033,-0.112l0.033,-0.112l0.032,-0.112l0.032,-0.113l0.031,-0.112l0.03,-0.114l0.03,-0.113l0.029,-0.114l0.028,-0.114l0.027,-0.114l0.027,-0.114l0.026,-0.115l0.026,-0.115l0.025,-0.116l0.024,-0.115l0.023,-0.116l0.023,-0.116l0.022,-0.116l0.021,-0.117l0.02,-0.117l0.02,-0.117l0.019,-0.118l0.019,-0.117l0.017,-0.118l0.017,-0.118l0.017,-0.119l0.015,-0.118l0.015,-0.119l0.014,-0.119l0.013,-0.12l0.013,-0.119l0.011,-0.12l0.011,-0.12l0.011,-0.121l0.009,-0.12l0.009,-0.121l0.008,-0.121l0.008,-0.122l0.006,-0.121l0.006,-0.122l0.005,-0.122l0.004,-0.122l0.004,-0.123l0.002,-0.123l0.002,-0.122l0.002,-0.124l0,-0.123l0,-0.123l-0.002,-0.124l-0.002,-0.122l-0.002,-0.123l-0.004,-0.123l-0.004,-0.122l-0.005,-0.122l-0.006,-0.122l-0.006,-0.121l-0.008,-0.122l-0.008,-0.121l-0.009,-0.121l-0.009,-0.12l-0.011,-0.121l-0.011,-0.12l-0.011,-0.12l-0.013,-0.119l-0.013,-0.12l-0.014,-0.119l-0.015,-0.119l-0.015,-0.118l-0.017,-0.119l-0.017,-0.118l-0.017,-0.118l-0.019,-0.117l-0.019,-0.118l-0.02,-0.117l-0.02,-0.117l-0.021,-0.117l-0.022,-0.116l-0.023,-0.116l-0.023,-0.116l-0.024,-0.115l-0.025,-0.116l-0.026,-0.115l-0.026,-0.115l-0.027,-0.114l-0.027,-0.114l-0.028,-0.114l-0.029,-0.114l-0.03,-0.113l-0.03,-0.114l-0.031,-0.112l-0.032,-0.113l-0.032,-0.112l-0.033,-0.112l-0.033,-0.112l-0.035,-0.111l-0.035,-0.111l-0.035,-0.111l-0.037,-0.111l-0.037,-0.11l-0.037,-0.11l-0.039,-0.11l-0.038,-0.109l-0.04,-0.109l-0.04,-0.109l-0.041,-0.108l-0.042,-0.108l-0.042,-0.108l-0.043,-0.108l-0.043,-0.107l-0.044,-0.107l-0.045,-0.106l-0.045,-0.106l-0.046,-0.106l-0.047,-0.106l-0.047,-0.105l-0.048,-0.105l-0.048,-0.104l-0.049,-0.105l-0.05,-0.104l-0.05,-0.103l-0.051,-0.103l-0.052,-0.103l-0.052,-0.103l-0.053,-0.102l-0.053,-0.102l-0.054,-0.101l-0.055,-0.101l-0.055,-0.101l-0.055,-0.1l-0.057,-0.1l-0.057,-0.1l-0.057,-0.099l-0.058,-0.099l-0.059,-0.099l-0.059,-0.098l-0.06,-0.097l-0.06,-0.098l-0.061,-0.097l-0.062,-0.096l-0.062,-0.097l-0.063,-0.096l-0.063,-0.095l-0.064,-0.095l-0.064,-0.095l-0.065,-0.094l-0.066,-0.094l-0.066,-0.093l-0.066,-0.093l-0.067,-0.093l-0.068,-0.092l-0.068,-0.092l-0.069,-0.091l-0.069,-0.091l-0.07,-0.091l-0.071,-0.09l-0.071,-0.089l-0.071,-0.09l-0.072,-0.088l-0.072,-0.089l-0.073,-0.088l-0.074,-0.087l-0.074,-0.087l-0.075,-0.087l-0.075,-0.086l-0.075,-0.085l-0.076,-0.086l-0.077,-0.084l-0.077,-0.085l-0.077,-0.084l-0.079,-0.083l-0.078,-0.083l-0.079,-0.082l-0.08,-0.082l-0.08,-0.082l-0.08,-0.081l-0.081,-0.08l-0.082,-0.08l-0.082,-0.08l-0.082,-0.079l-0.083,-0.078l-0.083,-0.079l-0.084,-0.077l-0.085,-0.077l-0.084,-0.077l-0.086,-0.076l-0.085,-0.075l-0.086,-0.075l-0.087,-0.075l-0.087,-0.074l-0.087,-0.074l-0.088,-0.073l-0.089,-0.072l-0.088,-0.072l-0.09,-0.071l-0.089,-0.071l-0.09,-0.071l-0.091,-0.07l-0.091,-0.069l-0.091,-0.069l-0.092,-0.068l-0.092,-0.068l-0.093,-0.067l-0.093,-0.066l-0.093,-0.066l-0.094,-0.066l-0.094,-0.065l-0.095,-0.064l-0.095,-0.064l-0.095,-0.063l-0.096,-0.063l-0.097,-0.062l-0.096,-0.062l-0.097,-0.061l-0.098,-0.06l-0.097,-0.06l-0.098,-0.059l-0.099,-0.059l-0.099,-0.058l-0.099,-0.057l-0.1,-0.057l-0.1,-0.057l-0.1,-0.055l-0.101,-0.055l-0.101,-0.055l-0.101,-0.054l-0.102,-0.053l-0.102,-0.053l-0.103,-0.052l-0.103,-0.052l-0.103,-0.051l-0.103,-0.05l-0.104,-0.05l-0.105,-0.049l-0.104,-0.048l-0.105,-0.048l-0.105,-0.047l-0.106,-0.047l-0.106,-0.046l-0.106,-0.045l-0.106,-0.045l-0.107,-0.044l-0.107,-0.043l-0.108,-0.043l-0.108,-0.042l-0.108,-0.042l-0.108,-0.041l-0.109,-0.04l-0.109,-0.04l-0.109,-0.038l-0.11,-0.039l-0.11,-0.037l-0.11,-0.037l-0.111,-0.037l-0.111,-0.035l-0.111,-0.035l-0.111,-0.035l-0.112,-0.033l-0.112,-0.033l-0.112,-0.032l-0.113,-0.032l-0.112,-0.031l-0.114,-0.03l-0.113,-0.03l-0.114,-0.029l-0.114,-0.028l-0.114,-0.027l-0.114,-0.027l-0.115,-0.026l-0.115,-0.026l-0.116,-0.025l-0.115,-0.024l-0.116,-0.023l-0.116,-0.023l-0.116,-0.022l-0.117,-0.021l-0.117,-0.02l-0.117,-0.02l-0.118,-0.019l-0.117,-0.019l-0.118,-0.017l-0.118,-0.017l-0.119,-0.017l-0.118,-0.015l-0.119,-0.015l-0.119,-0.014l-0.12,-0.013l-0.119,-0.013l-0.12,-0.011l-0.12,-0.011l-0.121,-0.011l-0.12,-0.009l-0.121,-0.009l-0.121,-0.008l-0.122,-0.008l-0.121,-0.006l-0.122,-0.006l-0.122,-0.005l-0.122,-0.004l-0.123,-0.004l-0.122,-0.002l-0.123,-0.002l-0.124,-0.002l-0.123,0l-0.123,0Z" style="fill:#00f;"/><path d="M29.044,4.447c3.925,-2.799 8.728,-4.447 13.912,-4.447c13.246,0 24,10.754 24,24c0,13.246 -10.754,24 -24,24c-5.184,0 -9.987,-1.648 -13.912,-4.447c3.529,-1.826 7.499,-2.581 10.59,-5.939c3.104,-3.372 5.322,-9.352 5.322,-13.614c0,-4.69 -2.686,-11.039 -6.282,-14.611c-2.927,-2.907 -6.456,-3.3 -9.63,-4.942Z" style="fill:#00f;"/></g><path d="M95.998,13.506c2.844,0 5.226,1.008 7.146,3.024c1.92,2.016 2.88,5.094 2.88,9.234c0,4.14 -0.954,7.272 -2.862,9.396c-1.908,2.124 -4.488,3.186 -7.74,3.186c-3.252,0 -5.802,-1.056 -7.65,-3.168c-1.848,-2.112 -2.772,-5.184 -2.772,-9.216c0,-2.208 0.324,-4.146 0.972,-5.814c0.648,-1.668 1.5,-2.958 2.556,-3.87c2.136,-1.848 4.626,-2.772 7.47,-2.772Zm-6.498,12.276c0,5.952 2.064,8.928 6.192,8.928c2.208,0 3.756,-0.912 4.644,-2.736c0.816,-1.608 1.224,-3.576 1.224,-5.904c0,-2.088 -0.36,-4.008 -1.08,-5.76c-0.408,-0.96 -1.026,-1.716 -1.854,-2.268c-0.828,-0.552 -1.902,-0.828 -3.222,-0.828c-1.32,0 -2.454,0.432 -3.402,1.296c-0.948,0.864 -1.602,1.908 -1.962,3.132c-0.36,1.224 -0.54,2.604 -0.54,4.14Z" style="fill:#00f;fill-rule:nonzero;"/><path d="M118.048,33.666l0,-16.56l-2.052,-0.108l0,-3.06l8.712,0l0,2.916l-1.188,0.108c-0.696,0.072 -1.044,0.456 -1.044,1.152l0,16.596l2.052,0.108l0,3.06l-8.712,0l0,-2.916l1.188,-0.108c0.36,-0.048 0.624,-0.15 0.792,-0.306c0.168,-0.156 0.252,-0.45 0.252,-0.882Z" style="fill:#00f;fill-rule:nonzero;"/><path d="M126.688,22.65l0,-2.88l6.084,0l0,2.34c0.624,-0.888 1.452,-1.59 2.484,-2.106c1.032,-0.516 2.148,-0.774 3.348,-0.774c1.824,0 3.234,0.522 4.23,1.566c0.996,1.044 1.494,2.61 1.494,4.698l0,9.396l2.052,0.108l0,2.88l-8.568,0l0,-2.736l1.188,-0.108c0.36,-0.048 0.624,-0.15 0.792,-0.306c0.168,-0.156 0.252,-0.45 0.252,-0.882l0,-7.416c0,-1.32 -0.204,-2.298 -0.612,-2.934c-0.408,-0.636 -1.182,-0.954 -2.322,-0.954c-1.14,0 -2.046,0.36 -2.718,1.08c-0.672,0.72 -1.008,1.572 -1.008,2.556l0,8.712l2.052,0.108l0,2.88l-8.568,0l0,-2.736l1.188,-0.108c0.36,-0.048 0.624,-0.15 0.792,-0.306c0.168,-0.156 0.252,-0.45 0.252,-0.882l0,-9.972c0,-0.72 -0.3,-1.092 -0.9,-1.116l-1.512,-0.108Z" style="fill:#00f;fill-rule:nonzero;"/><path d="M151.06,15.954l2.34,0l0,3.816l4.788,0l-0.36,3.024l-4.428,0l0,9.468c0,1.056 0.192,1.794 0.576,2.214c0.384,0.42 0.978,0.63 1.782,0.63c0.804,0 1.614,-0.252 2.43,-0.756l1.08,2.772c-1.2,0.84 -2.724,1.26 -4.572,1.26c-1.08,0 -1.992,-0.138 -2.736,-0.414c-0.744,-0.276 -1.296,-0.582 -1.656,-0.918c-0.36,-0.336 -0.636,-0.828 -0.828,-1.476c-0.192,-0.648 -0.3,-1.158 -0.324,-1.53c-0.024,-0.372 -0.036,-0.918 -0.036,-1.638l0,-9.612l-2.556,0l0.36,-2.628c1.128,-0.096 1.98,-0.498 2.556,-1.206c0.576,-0.708 1.104,-1.71 1.584,-3.006Z" style="fill:#00f;fill-rule:nonzero;"/><path d="M169.672,19.23c1.8,0 3.228,0.438 4.284,1.314c1.056,0.876 1.584,2.106 1.584,3.69c0,1.056 -0.228,1.986 -0.684,2.79c-0.456,0.804 -1.02,1.434 -1.692,1.89c-0.672,0.456 -1.488,0.828 -2.448,1.116c-1.608,0.48 -3.42,0.72 -5.436,0.72c0.072,1.272 0.468,2.298 1.188,3.078c0.72,0.78 1.824,1.17 3.312,1.17c1.488,0 2.976,-0.528 4.464,-1.584l1.368,2.916c-0.48,0.432 -1.29,0.876 -2.43,1.332c-1.14,0.456 -2.442,0.684 -3.906,0.684c-2.928,0 -5.076,-0.81 -6.444,-2.43c-1.368,-1.62 -2.052,-3.846 -2.052,-6.678c0,-2.832 0.78,-5.208 2.34,-7.128c1.56,-1.92 3.744,-2.88 6.552,-2.88Zm-1.638,8.226c0.876,-0.156 1.686,-0.504 2.43,-1.044c0.744,-0.54 1.116,-1.182 1.116,-1.926c0,-1.464 -0.72,-2.196 -2.16,-2.196c-1.344,0 -2.376,0.534 -3.096,1.602c-0.72,1.068 -1.116,2.346 -1.188,3.834c1.056,-0.024 2.022,-0.114 2.898,-0.27Z" style="fill:#00f;fill-rule:nonzero;"/><path d="M180.292,33.846l0,-9.972c0,-0.384 -0.066,-0.654 -0.198,-0.81c-0.132,-0.156 -0.366,-0.246 -0.702,-0.27l-1.512,-0.108l0,-2.916l6.084,0l0,2.7c0.432,-0.936 1.104,-1.71 2.016,-2.322c0.912,-0.612 1.962,-0.918 3.15,-0.918c1.188,0 2.322,0.264 3.402,0.792l0,5.364l-3.348,0.252l0,-1.656c0,-0.48 -0.12,-0.78 -0.36,-0.9c-0.264,-0.12 -0.588,-0.18 -0.972,-0.18c-0.96,0 -1.746,0.342 -2.358,1.026c-0.612,0.684 -0.918,1.554 -0.918,2.61l0,8.352l3.132,0.144l0,2.844l-9.648,0l0,-2.736l1.188,-0.108c0.36,-0.048 0.624,-0.15 0.792,-0.306c0.168,-0.156 0.252,-0.45 0.252,-0.882Z" style="fill:#00f;fill-rule:nonzero;"/><path d="M201.136,12.21l0,22.68l2.052,0.108l0,2.88l-8.568,0l0,-2.736l1.188,-0.108c0.696,-0.072 1.044,-0.456 1.044,-1.152l0,-17.748c0,-0.528 -0.3,-0.816 -0.9,-0.864l-1.26,-0.072l0,-2.988l6.444,0Z" style="fill:#00f;fill-rule:nonzero;"/><path d="M224.5,35.034l0,2.844l-5.832,0l0,-2.34c-1.32,1.872 -3.264,2.808 -5.832,2.808c-3.72,0 -5.58,-2.076 -5.58,-6.228l0,-8.316c0,-0.648 -0.3,-0.984 -0.9,-1.008l-1.152,-0.072l0,-2.952l6.336,0l0,11.412c0,1.272 0.18,2.232 0.54,2.88c0.36,0.648 1.104,0.972 2.232,0.972c1.128,0 2.034,-0.348 2.718,-1.044c0.684,-0.696 1.026,-1.536 1.026,-2.52l0,-7.596c0,-0.384 -0.066,-0.654 -0.198,-0.81c-0.132,-0.156 -0.366,-0.246 -0.702,-0.27l-1.152,-0.072l0,-2.952l6.336,0l0,14.112c0,0.384 0.06,0.642 0.18,0.774c0.12,0.132 0.36,0.222 0.72,0.27l1.26,0.108Zm-12.924,-18.54l4.176,-6.912l1.692,0.792c0.696,0.384 1.044,0.816 1.044,1.296c0,0.48 -0.3,0.996 -0.9,1.548l-4.608,4.464l-1.404,-1.188Z" style="fill:#00f;fill-rule:nonzero;"/><path d="M235.732,19.23c1.032,0 2.016,0.144 2.952,0.432l0,-3.636c0,-0.528 -0.312,-0.816 -0.936,-0.864l-1.548,-0.108l0,-2.844l6.696,0l0,21.888c0.024,0.552 0.324,0.828 0.9,0.828l1.26,0.072l0,2.88l-5.832,0l0,-2.124l-0.108,-0.036c-1.08,1.752 -2.712,2.628 -4.896,2.628c-2.736,0 -4.656,-0.912 -5.76,-2.736c-1.008,-1.656 -1.512,-3.684 -1.512,-6.084c0,-3.12 0.774,-5.616 2.322,-7.488c1.548,-1.872 3.702,-2.808 6.462,-2.808Zm2.952,13.032l0,-9.324c-0.864,-0.384 -1.776,-0.576 -2.736,-0.576c-1.584,0 -2.742,0.636 -3.474,1.908c-0.732,1.272 -1.098,2.892 -1.098,4.86c0,4.032 1.296,6.048 3.888,6.048c0.984,0 1.8,-0.282 2.448,-0.846c0.648,-0.564 0.972,-1.254 0.972,-2.07Z" style="fill:#00f;fill-rule:nonzero;"/><path d="M253.66,19.77l0,15.12l2.052,0.108l0,2.88l-8.568,0l0,-2.736l1.188,-0.108c0.696,-0.072 1.044,-0.456 1.044,-1.152l0,-10.008c0,-0.408 -0.066,-0.684 -0.198,-0.828c-0.132,-0.144 -0.366,-0.216 -0.702,-0.216l-1.26,-0.072l0,-2.988l6.444,0Zm-4.536,-3.114c-0.504,-0.492 -0.756,-1.122 -0.756,-1.89c0,-0.768 0.252,-1.41 0.756,-1.926c0.504,-0.516 1.164,-0.774 1.98,-0.774c0.816,0 1.482,0.258 1.998,0.774c0.516,0.516 0.774,1.158 0.774,1.926c0,0.768 -0.258,1.398 -0.774,1.89c-0.516,0.492 -1.182,0.738 -1.998,0.738c-0.816,0 -1.476,-0.246 -1.98,-0.738Z" style="fill:#00f;fill-rule:nonzero;"/><path d="M266.08,35.25c2.616,0 3.924,-2.112 3.924,-6.336c0,-2.136 -0.294,-3.756 -0.882,-4.86c-0.588,-1.104 -1.572,-1.656 -2.952,-1.656c-1.38,0 -2.394,0.528 -3.042,1.584c-0.648,1.056 -0.972,2.496 -0.972,4.32c0,3.384 0.624,5.508 1.872,6.372c0.552,0.384 1.236,0.576 2.052,0.576Zm-8.28,-6.444c0,-1.776 0.264,-3.318 0.792,-4.626c0.528,-1.308 1.236,-2.31 2.124,-3.006c1.704,-1.296 3.588,-1.944 5.652,-1.944c1.44,0 2.658,0.234 3.654,0.702c0.996,0.468 1.776,1.008 2.34,1.62c0.564,0.612 1.044,1.5 1.44,2.664c0.396,1.164 0.594,2.538 0.594,4.122c0,3.312 -0.804,5.82 -2.412,7.524c-1.608,1.704 -3.666,2.556 -6.174,2.556c-2.508,0 -4.47,-0.81 -5.886,-2.43c-1.416,-1.62 -2.124,-4.014 -2.124,-7.182Z" style="fill:#00f;fill-rule:nonzero;"/></svg>