<?xml version="1.0" encoding="UTF-8" standalone="no"?><!DOCTYPE svg PUBLIC "-//W3C//DTD SVG 1.1//EN" "http://www.w3.org/Graphics/SVG/1.1/DTD/svg11.dtd"><svg width="100%" height="100%" viewBox="0 0 67 48" version="1.1" xmlns="http://www.w3.org/2000/svg" xmlns:xlink="http://www.w3.org/1999/xlink" xml:space="preserve" xmlns:serif="http://www.serif.com/" style="fill-rule:evenodd;clip-rule:evenodd;stroke-linejoin:round;stroke-miterlimit:2;"><rect id="Logo-Little" serif:id="Logo Little" x="0" y="0" width="67" height="48" style="fill:none;"/><clipPath id="_clip1"><rect x="0" y="0" width="67" height="48"/></clipPath><g clip-path="url(#_clip1)"><g><path d="M24.155,0l0.155,0.002l0.155,0.002l0.154,0.004l0.154,0.004l0.154,0.006l0.154,0.006l0.153,0.007l0.153,0.009l0.153,0.009l0.153,0.01l0.152,0.011l0.153,0.012l0.151,0.013l0.152,0.014l0.151,0.015l0.151,0.016l0.151,0.017l0.151,0.017l0.15,0.019l0.15,0.02l0.15,0.02l0.149,0.021l0.149,0.023l0.149,0.023l0.148,0.024l0.148,0.025l0.148,0.026l0.148,0.027l0.147,0.028l0.147,0.028l0.146,0.03l0.147,0.03l0.145,0.032l0.146,0.032l0.145,0.033l0.145,0.034l0.145,0.035l0.144,0.036l0.144,0.036l0.144,0.038l0.143,0.038l0.143,0.039l0.142,0.04l0.142,0.041l0.142,0.042l0.142,0.042l0.141,0.044l0.14,0.044l0.141,0.045l0.14,0.046l0.139,0.047l0.139,0.048l0.139,0.048l0.138,0.049l0.138,0.05l0.138,0.051l0.137,0.052l0.137,0.052l0.137,0.054l0.136,0.054l0.135,0.055l0.135,0.056l0.135,0.056l0.135,0.058l0.133,0.058l0.134,0.059l0.133,0.059l0.133,0.061l0.132,0.061l0.132,0.062l0.131,0.063l0.131,0.064l0.131,0.064l0.13,0.065l0.129,0.066l0.129,0.067l0.129,0.067l0.128,0.069l0.128,0.068l0.127,0.07l0.127,0.071l0.126,0.071l0.126,0.072l0.126,0.072l0.125,0.074l0.124,0.074l0.124,0.075l0.123,0.075l0.123,0.076l0.123,0.077l0.122,0.078l0.121,0.079l0.121,0.079l0.121,0.08l0.12,0.08l0.119,0.081l0.119,0.082l0.119,0.083l0.117,0.083l0.118,0.084l0.117,0.085l0.116,0.085l0.116,0.087l0.115,0.086l0.115,0.088l0.114,0.088l0.114,0.089l0.113,0.089l0.112,0.09l0.112,0.091l0.112,0.091l0.11,0.092l0.111,0.093l0.109,0.093l0.11,0.094l0.108,0.095l0.108,0.095l0.108,0.096l0.107,0.097l0.106,0.097l0.106,0.098l0.105,0.098l0.104,0.099l0.104,0.1l0.103,0.1l0.103,0.101l0.102,0.102l0.102,0.102l0.101,0.103l0.1,0.103l0.1,0.104l0.099,0.104l0.098,0.105l0.098,0.106l0.097,0.106l0.097,0.107l0.096,0.108l0.095,0.108l0.095,0.108l0.094,0.11l0.093,0.109l0.093,0.111l0.092,0.11l0.091,0.112l0.091,0.112l0.09,0.112l0.089,0.113l0.089,0.114l0.088,0.114l0.088,0.115l0.086,0.115l0.087,0.116l0.085,0.116l0.085,0.117l0.084,0.118l0.083,0.117l0.083,0.119l0.082,0.119l0.081,0.119l0.08,0.12l0.08,0.121l0.079,0.121l0.079,0.121l0.078,0.122l0.077,0.123l0.076,0.123l0.075,0.123l0.075,0.124l0.074,0.124l0.074,0.125l0.072,0.126l0.072,0.126l0.071,0.126l0.071,0.127l0.07,0.127l0.068,0.128l0.069,0.128l0.067,0.129l0.067,0.129l0.066,0.129l0.065,0.13l0.064,0.131l0.064,0.131l0.063,0.131l0.062,0.132l0.061,0.132l0.061,0.133l0.059,0.133l0.059,0.134l0.058,0.133l0.058,0.135l0.056,0.135l0.056,0.135l0.055,0.135l0.054,0.136l0.054,0.137l0.052,0.137l0.052,0.137l0.051,0.138l0.05,0.138l0.049,0.138l0.048,0.139l0.048,0.139l0.047,0.139l0.046,0.14l0.045,0.141l0.044,0.14l0.044,0.141l0.042,0.142l0.042,0.142l0.041,0.142l0.04,0.142l0.039,0.143l0.038,0.143l0.038,0.144l0.036,0.144l0.036,0.144l0.035,0.145l0.034,0.145l0.033,0.145l0.032,0.146l0.032,0.145l0.03,0.147l0.03,0.146l0.028,0.147l0.028,0.147l0.027,0.148l0.026,0.148l0.025,0.148l0.024,0.148l0.023,0.149l0.023,0.149l0.021,0.149l0.02,0.15l0.02,0.15l0.019,0.15l0.017,0.151l0.017,0.151l0.016,0.151l0.015,0.151l0.014,0.152l0.013,0.151l0.012,0.153l0.011,0.152l0.01,0.153l0.009,0.153l0.009,0.153l0.007,0.153l0.006,0.154l0.006,0.154l0.004,0.154l0.004,0.154l0.002,0.155l0.002,0.155l0,0.155l0,0.155l-0.002,0.155l-0.002,0.155l-0.004,0.154l-0.004,0.154l-0.006,0.154l-0.006,0.154l-0.007,0.153l-0.009,0.153l-0.009,0.153l-0.01,0.153l-0.011,0.152l-0.012,0.153l-0.013,0.151l-0.014,0.152l-0.015,0.151l-0.016,0.151l-0.017,0.151l-0.017,0.151l-0.019,0.15l-0.02,0.15l-0.02,0.15l-0.021,0.149l-0.023,0.149l-0.023,0.149l-0.024,0.148l-0.025,0.148l-0.026,0.148l-0.027,0.148l-0.028,0.147l-0.028,0.147l-0.03,0.146l-0.03,0.147l-0.032,0.145l-0.032,0.146l-0.033,0.145l-0.034,0.145l-0.035,0.145l-0.036,0.144l-0.036,0.144l-0.038,0.144l-0.038,0.143l-0.039,0.143l-0.04,0.142l-0.041,0.142l-0.042,0.142l-0.042,0.142l-0.044,0.141l-0.044,0.14l-0.045,0.141l-0.046,0.14l-0.047,0.139l-0.048,0.139l-0.048,0.139l-0.049,0.138l-0.05,0.138l-0.051,0.138l-0.052,0.137l-0.052,0.137l-0.054,0.137l-0.054,0.136l-0.055,0.135l-0.056,0.135l-0.056,0.135l-0.058,0.135l-0.058,0.133l-0.059,0.134l-0.059,0.133l-0.061,0.133l-0.061,0.132l-0.062,0.132l-0.063,0.131l-0.064,0.131l-0.064,0.131l-0.065,0.13l-0.066,0.129l-0.067,0.129l-0.067,0.129l-0.069,0.128l-0.068,0.128l-0.07,0.127l-0.071,0.127l-0.071,0.126l-0.072,0.126l-0.072,0.126l-0.074,0.125l-0.074,0.124l-0.075,0.124l-0.075,0.123l-0.076,0.123l-0.077,0.123l-0.078,0.122l-0.079,0.121l-0.079,0.121l-0.08,0.121l-0.08,0.12l-0.081,0.119l-0.082,0.119l-0.083,0.119l-0.083,0.117l-0.084,0.118l-0.085,0.117l-0.085,0.116l-0.087,0.116l-0.086,0.115l-0.088,0.115l-0.088,0.114l-0.089,0.114l-0.089,0.113l-0.09,0.112l-0.091,0.112l-0.091,0.112l-0.092,0.11l-0.093,0.111l-0.093,0.109l-0.094,0.11l-0.095,0.108l-0.095,0.108l-0.096,0.108l-0.097,0.107l-0.097,0.106l-0.098,0.106l-0.098,0.105l-0.099,0.104l-0.1,0.104l-0.1,0.103l-0.101,0.103l-0.102,0.102l-0.102,0.102l-0.103,0.101l-0.103,0.1l-0.104,0.1l-0.104,0.099l-0.105,0.098l-0.106,0.098l-0.106,0.097l-0.107,0.097l-0.108,0.096l-0.108,0.095l-0.108,0.095l-0.11,0.094l-0.109,0.093l-0.111,0.093l-0.11,0.092l-0.112,0.091l-0.112,0.091l-0.112,0.09l-0.113,0.089l-0.114,0.089l-0.114,0.088l-0.115,0.088l-0.115,0.086l-0.116,0.087l-0.116,0.085l-0.117,0.085l-0.118,0.084l-0.117,0.083l-0.119,0.083l-0.119,0.082l-0.119,0.081l-0.12,0.08l-0.121,0.08l-0.121,0.079l-0.121,0.079l-0.122,0.078l-0.123,0.077l-0.123,0.076l-0.123,0.075l-0.124,0.075l-0.124,0.074l-0.125,0.074l-0.126,0.072l-0.126,0.072l-0.126,0.071l-0.127,0.071l-0.127,0.07l-0.128,0.068l-0.128,0.069l-0.129,0.067l-0.129,0.067l-0.129,0.066l-0.13,0.065l-0.131,0.064l-0.131,0.064l-0.131,0.063l-0.132,0.062l-0.132,0.061l-0.133,0.061l-0.133,0.059l-0.134,0.059l-0.133,0.058l-0.135,0.058l-0.135,0.056l-0.135,0.056l-0.135,0.055l-0.136,0.054l-0.137,0.054l-0.137,0.052l-0.137,0.052l-0.138,0.051l-0.138,0.05l-0.138,0.049l-0.139,0.048l-0.139,0.048l-0.139,0.047l-0.14,0.046l-0.141,0.045l-0.14,0.044l-0.141,0.044l-0.142,0.042l-0.142,0.042l-0.142,0.041l-0.142,0.04l-0.143,0.039l-0.143,0.038l-0.144,0.038l-0.144,0.036l-0.144,0.036l-0.145,0.035l-0.145,0.034l-0.145,0.033l-0.146,0.032l-0.145,0.032l-0.147,0.03l-0.146,0.03l-0.147,0.028l-0.147,0.028l-0.148,0.027l-0.148,0.026l-0.148,0.025l-0.148,0.024l-0.149,0.023l-0.149,0.023l-0.149,0.021l-0.15,0.02l-0.15,0.02l-0.15,0.019l-0.151,0.017l-0.151,0.017l-0.151,0.016l-0.151,0.015l-0.152,0.014l-0.151,0.013l-0.153,0.012l-0.152,0.011l-0.153,0.01l-0.153,0.009l-0.153,0.009l-0.153,0.007l-0.154,0.006l-0.154,0.006l-0.154,0.004l-0.154,0.004l-0.155,0.002l-0.155,0.002l-0.155,0l-0.155,0l-0.155,-0.002l-0.155,-0.002l-0.154,-0.004l-0.154,-0.004l-0.154,-0.006l-0.154,-0.006l-0.153,-0.007l-0.153,-0.009l-0.153,-0.009l-0.153,-0.01l-0.152,-0.011l-0.153,-0.012l-0.151,-0.013l-0.152,-0.014l-0.151,-0.015l-0.151,-0.016l-0.151,-0.017l-0.151,-0.017l-0.15,-0.019l-0.15,-0.02l-0.15,-0.02l-0.149,-0.021l-0.149,-0.023l-0.149,-0.023l-0.148,-0.024l-0.148,-0.025l-0.148,-0.026l-0.148,-0.027l-0.147,-0.028l-0.147,-0.028l-0.146,-0.03l-0.147,-0.03l-0.145,-0.032l-0.146,-0.032l-0.145,-0.033l-0.145,-0.034l-0.145,-0.035l-0.144,-0.036l-0.144,-0.036l-0.144,-0.038l-0.143,-0.038l-0.143,-0.039l-0.142,-0.04l-0.142,-0.041l-0.142,-0.042l-0.142,-0.042l-0.141,-0.044l-0.14,-0.044l-0.141,-0.045l-0.14,-0.046l-0.139,-0.047l-0.139,-0.048l-0.139,-0.048l-0.138,-0.049l-0.138,-0.05l-0.138,-0.051l-0.137,-0.052l-0.137,-0.052l-0.137,-0.054l-0.136,-0.054l-0.135,-0.055l-0.135,-0.056l-0.135,-0.056l-0.135,-0.058l-0.133,-0.058l-0.134,-0.059l-0.133,-0.059l-0.133,-0.061l-0.132,-0.061l-0.132,-0.062l-0.131,-0.063l-0.131,-0.064l-0.131,-0.064l-0.13,-0.065l-0.129,-0.066l-0.129,-0.067l-0.129,-0.067l-0.128,-0.069l-0.128,-0.068l-0.127,-0.07l-0.127,-0.071l-0.126,-0.071l-0.126,-0.072l-0.126,-0.072l-0.125,-0.074l-0.124,-0.074l-0.124,-0.075l-0.123,-0.075l-0.123,-0.076l-0.123,-0.077l-0.122,-0.078l-0.121,-0.079l-0.121,-0.079l-0.121,-0.08l-0.12,-0.08l-0.119,-0.081l-0.119,-0.082l-0.119,-0.083l-0.117,-0.083l-0.118,-0.084l-0.117,-0.085l-0.116,-0.085l-0.116,-0.087l-0.115,-0.086l-0.115,-0.088l-0.114,-0.088l-0.114,-0.089l-0.113,-0.089l-0.112,-0.09l-0.112,-0.091l-0.112,-0.091l-0.11,-0.092l-0.111,-0.093l-0.109,-0.093l-0.11,-0.094l-0.108,-0.095l-0.108,-0.095l-0.108,-0.096l-0.107,-0.097l-0.106,-0.097l-0.106,-0.098l-0.105,-0.098l-0.104,-0.099l-0.104,-0.1l-0.103,-0.1l-0.103,-0.101l-0.102,-0.102l-0.102,-0.102l-0.101,-0.103l-0.1,-0.103l-0.1,-0.104l-0.099,-0.104l-0.098,-0.105l-0.098,-0.106l-0.097,-0.106l-0.097,-0.107l-0.096,-0.108l-0.095,-0.108l-0.095,-0.108l-0.094,-0.11l-0.093,-0.109l-0.093,-0.111l-0.092,-0.11l-0.091,-0.112l-0.091,-0.112l-0.09,-0.112l-0.089,-0.113l-0.089,-0.114l-0.088,-0.114l-0.088,-0.115l-0.086,-0.115l-0.087,-0.116l-0.085,-0.116l-0.085,-0.117l-0.084,-0.118l-0.083,-0.117l-0.083,-0.119l-0.082,-0.119l-0.081,-0.119l-0.08,-0.12l-0.08,-0.121l-0.079,-0.121l-0.079,-0.121l-0.078,-0.122l-0.077,-0.123l-0.076,-0.123l-0.075,-0.123l-0.075,-0.124l-0.074,-0.124l-0.074,-0.125l-0.072,-0.126l-0.072,-0.126l-0.071,-0.126l-0.071,-0.127l-0.07,-0.127l-0.068,-0.128l-0.069,-0.128l-0.067,-0.129l-0.067,-0.129l-0.066,-0.129l-0.065,-0.13l-0.064,-0.131l-0.064,-0.131l-0.063,-0.131l-0.062,-0.132l-0.061,-0.132l-0.061,-0.133l-0.059,-0.133l-0.059,-0.134l-0.058,-0.133l-0.058,-0.135l-0.056,-0.135l-0.056,-0.135l-0.055,-0.135l-0.054,-0.136l-0.054,-0.137l-0.052,-0.137l-0.052,-0.137l-0.051,-0.138l-0.05,-0.138l-0.049,-0.138l-0.048,-0.139l-0.048,-0.139l-0.047,-0.139l-0.046,-0.14l-0.045,-0.141l-0.044,-0.14l-0.044,-0.141l-0.042,-0.142l-0.042,-0.142l-0.041,-0.142l-0.04,-0.142l-0.039,-0.143l-0.038,-0.143l-0.038,-0.144l-0.036,-0.144l-0.036,-0.144l-0.035,-0.145l-0.034,-0.145l-0.033,-0.145l-0.032,-0.146l-0.032,-0.145l-0.03,-0.147l-0.03,-0.146l-0.028,-0.147l-0.028,-0.147l-0.027,-0.148l-0.026,-0.148l-0.025,-0.148l-0.024,-0.148l-0.023,-0.149l-0.023,-0.149l-0.021,-0.149l-0.02,-0.15l-0.02,-0.15l-0.019,-0.15l-0.017,-0.151l-0.017,-0.151l-0.016,-0.151l-0.015,-0.151l-0.014,-0.152l-0.013,-0.151l-0.012,-0.153l-0.011,-0.152l-0.01,-0.153l-0.009,-0.153l-0.009,-0.153l-0.007,-0.153l-0.006,-0.154l-0.006,-0.154l-0.004,-0.154l-0.004,-0.154l-0.002,-0.155l-0.002,-0.155l0,-0.155l0,-0.155l0.002,-0.155l0.002,-0.155l0.004,-0.154l0.004,-0.154l0.006,-0.154l0.006,-0.154l0.007,-0.153l0.009,-0.153l0.009,-0.153l0.01,-0.153l0.011,-0.152l0.012,-0.153l0.013,-0.151l0.014,-0.152l0.015,-0.151l0.016,-0.151l0.017,-0.151l0.017,-0.151l0.019,-0.15l0.02,-0.15l0.02,-0.15l0.021,-0.149l0.023,-0.149l0.023,-0.149l0.024,-0.148l0.025,-0.148l0.026,-0.148l0.027,-0.148l0.028,-0.147l0.028,-0.147l0.03,-0.146l0.03,-0.147l0.032,-0.145l0.032,-0.146l0.033,-0.145l0.034,-0.145l0.035,-0.145l0.036,-0.144l0.036,-0.144l0.038,-0.144l0.038,-0.143l0.039,-0.143l0.04,-0.142l0.041,-0.142l0.042,-0.142l0.042,-0.142l0.044,-0.141l0.044,-0.14l0.045,-0.141l0.046,-0.14l0.047,-0.139l0.048,-0.139l0.048,-0.139l0.049,-0.138l0.05,-0.138l0.051,-0.138l0.052,-0.137l0.052,-0.137l0.054,-0.137l0.054,-0.136l0.055,-0.135l0.056,-0.135l0.056,-0.135l0.058,-0.135l0.058,-0.133l0.059,-0.134l0.059,-0.133l0.061,-0.133l0.061,-0.132l0.062,-0.132l0.063,-0.131l0.064,-0.131l0.064,-0.131l0.065,-0.13l0.066,-0.129l0.067,-0.129l0.067,-0.129l0.069,-0.128l0.068,-0.128l0.07,-0.127l0.071,-0.127l0.071,-0.126l0.072,-0.126l0.072,-0.126l0.074,-0.125l0.074,-0.124l0.075,-0.124l0.075,-0.123l0.076,-0.123l0.077,-0.123l0.078,-0.122l0.079,-0.121l0.079,-0.121l0.08,-0.121l0.08,-0.12l0.081,-0.119l0.082,-0.119l0.083,-0.119l0.083,-0.117l0.084,-0.118l0.085,-0.117l0.085,-0.116l0.087,-0.116l0.086,-0.115l0.088,-0.115l0.088,-0.114l0.089,-0.114l0.089,-0.113l0.09,-0.112l0.091,-0.112l0.091,-0.112l0.092,-0.11l0.093,-0.111l0.093,-0.109l0.094,-0.11l0.095,-0.108l0.095,-0.108l0.096,-0.108l0.097,-0.107l0.097,-0.106l0.098,-0.106l0.098,-0.105l0.099,-0.104l0.1,-0.104l0.1,-0.103l0.101,-0.103l0.102,-0.102l0.102,-0.102l0.103,-0.101l0.103,-0.1l0.104,-0.1l0.104,-0.099l0.105,-0.098l0.106,-0.098l0.106,-0.097l0.107,-0.097l0.108,-0.096l0.108,-0.095l0.108,-0.095l0.11,-0.094l0.109,-0.093l0.111,-0.093l0.11,-0.092l0.112,-0.091l0.112,-0.091l0.112,-0.09l0.113,-0.089l0.114,-0.089l0.114,-0.088l0.115,-0.088l0.115,-0.086l0.116,-0.087l0.116,-0.085l0.117,-0.085l0.118,-0.084l0.117,-0.083l0.119,-0.083l0.119,-0.082l0.119,-0.081l0.12,-0.08l0.121,-0.08l0.121,-0.079l0.121,-0.079l0.122,-0.078l0.123,-0.077l0.123,-0.076l0.123,-0.075l0.124,-0.075l0.124,-0.074l0.125,-0.074l0.126,-0.072l0.126,-0.072l0.126,-0.071l0.127,-0.071l0.127,-0.07l0.128,-0.068l0.128,-0.069l0.129,-0.067l0.129,-0.067l0.129,-0.066l0.13,-0.065l0.131,-0.064l0.131,-0.064l0.131,-0.063l0.132,-0.062l0.132,-0.061l0.133,-0.061l0.133,-0.059l0.134,-0.059l0.133,-0.058l0.135,-0.058l0.135,-0.056l0.135,-0.056l0.135,-0.055l0.136,-0.054l0.137,-0.054l0.137,-0.052l0.137,-0.052l0.138,-0.051l0.138,-0.05l0.138,-0.049l0.139,-0.048l0.139,-0.048l0.139,-0.047l0.14,-0.046l0.141,-0.045l0.14,-0.044l0.141,-0.044l0.142,-0.042l0.142,-0.042l0.142,-0.041l0.142,-0.04l0.143,-0.039l0.143,-0.038l0.144,-0.038l0.144,-0.036l0.144,-0.036l0.145,-0.035l0.145,-0.034l0.145,-0.033l0.146,-0.032l0.145,-0.032l0.147,-0.03l0.146,-0.03l0.147,-0.028l0.147,-0.028l0.148,-0.027l0.148,-0.026l0.148,-0.025l0.148,-0.024l0.149,-0.023l0.149,-0.023l0.149,-0.021l0.15,-0.02l0.15,-0.02l0.15,-0.019l0.151,-0.017l0.151,-0.017l0.151,-0.016l0.151,-0.015l0.152,-0.014l0.151,-0.013l0.153,-0.012l0.152,-0.011l0.153,-0.01l0.153,-0.009l0.153,-0.009l0.153,-0.007l0.154,-0.006l0.154,-0.006l0.154,-0.004l0.154,-0.004l0.155,-0.002l0.155,-0.002l0.155,0l0.155,0Zm-0.278,5l-0.124,0.002l-0.123,0.002l-0.122,0.002l-0.123,0.004l-0.122,0.004l-0.122,0.005l-0.122,0.006l-0.121,0.006l-0.122,0.008l-0.121,0.008l-0.121,0.009l-0.12,0.009l-0.121,0.011l-0.12,0.011l-0.12,0.011l-0.119,0.013l-0.12,0.013l-0.119,0.014l-0.119,0.015l-0.118,0.015l-0.119,0.017l-0.118,0.017l-0.118,0.017l-0.118,0.019l-0.117,0.019l-0.117,0.02l-0.117,0.02l-0.117,0.021l-0.116,0.022l-0.116,0.023l-0.116,0.023l-0.115,0.024l-0.116,0.025l-0.115,0.026l-0.115,0.026l-0.114,0.026l-0.114,0.028l-0.114,0.028l-0.114,0.029l-0.113,0.03l-0.113,0.03l-0.113,0.031l-0.113,0.032l-0.112,0.032l-0.112,0.033l-0.112,0.033l-0.111,0.035l-0.111,0.035l-0.111,0.035l-0.111,0.037l-0.11,0.037l-0.11,0.037l-0.11,0.039l-0.109,0.038l-0.109,0.04l-0.109,0.04l-0.108,0.041l-0.108,0.042l-0.108,0.042l-0.108,0.043l-0.107,0.043l-0.107,0.044l-0.106,0.045l-0.106,0.045l-0.106,0.046l-0.106,0.047l-0.105,0.047l-0.105,0.048l-0.105,0.048l-0.104,0.049l-0.104,0.05l-0.103,0.05l-0.103,0.051l-0.103,0.052l-0.103,0.052l-0.102,0.053l-0.102,0.053l-0.101,0.054l-0.101,0.055l-0.101,0.055l-0.1,0.055l-0.1,0.057l-0.1,0.057l-0.099,0.057l-0.099,0.058l-0.099,0.059l-0.098,0.059l-0.097,0.06l-0.098,0.06l-0.097,0.061l-0.097,0.062l-0.096,0.062l-0.095,0.063l-0.096,0.063l-0.095,0.064l-0.095,0.064l-0.094,0.065l-0.093,0.065l-0.094,0.067l-0.093,0.066l-0.093,0.067l-0.092,0.068l-0.092,0.068l-0.091,0.069l-0.091,0.069l-0.091,0.07l-0.09,0.071l-0.089,0.07l-0.089,0.072l-0.09,0.072l-0.088,0.073l-0.087,0.072l-0.088,0.074l-0.087,0.074l-0.087,0.075l-0.086,0.074l-0.085,0.076l-0.086,0.076l-0.084,0.077l-0.085,0.077l-0.084,0.078l-0.083,0.078l-0.083,0.078l-0.082,0.079l-0.082,0.08l-0.082,0.08l-0.081,0.08l-0.08,0.081l-0.08,0.082l-0.08,0.082l-0.079,0.082l-0.079,0.083l-0.078,0.084l-0.077,0.083l-0.077,0.084l-0.077,0.085l-0.076,0.086l-0.075,0.085l-0.076,0.086l-0.074,0.087l-0.074,0.087l-0.073,0.087l-0.074,0.088l-0.072,0.089l-0.072,0.088l-0.071,0.09l-0.071,0.089l-0.071,0.091l-0.07,0.09l-0.069,0.091l-0.069,0.091l-0.068,0.092l-0.068,0.092l-0.067,0.093l-0.066,0.093l-0.066,0.093l-0.066,0.094l-0.065,0.094l-0.064,0.095l-0.064,0.095l-0.063,0.096l-0.063,0.095l-0.062,0.097l-0.062,0.096l-0.06,0.097l-0.061,0.097l-0.06,0.098l-0.059,0.098l-0.059,0.099l-0.058,0.099l-0.057,0.099l-0.057,0.1l-0.057,0.1l-0.055,0.1l-0.056,0.101l-0.054,0.101l-0.054,0.101l-0.053,0.102l-0.053,0.102l-0.052,0.103l-0.052,0.103l-0.051,0.103l-0.05,0.103l-0.05,0.104l-0.049,0.105l-0.048,0.104l-0.048,0.105l-0.047,0.105l-0.047,0.106l-0.046,0.105l-0.045,0.107l-0.045,0.106l-0.044,0.107l-0.043,0.107l-0.043,0.108l-0.042,0.108l-0.042,0.107l-0.041,0.109l-0.04,0.109l-0.04,0.109l-0.038,0.109l-0.039,0.11l-0.037,0.11l-0.037,0.11l-0.037,0.11l-0.035,0.112l-0.035,0.111l-0.035,0.111l-0.033,0.112l-0.033,0.112l-0.032,0.112l-0.032,0.113l-0.031,0.112l-0.03,0.114l-0.03,0.113l-0.029,0.114l-0.028,0.113l-0.027,0.115l-0.027,0.114l-0.026,0.115l-0.026,0.116l-0.025,0.115l-0.024,0.115l-0.023,0.116l-0.023,0.116l-0.022,0.117l-0.021,0.116l-0.02,0.117l-0.02,0.117l-0.019,0.118l-0.019,0.117l-0.017,0.118l-0.017,0.118l-0.017,0.119l-0.015,0.118l-0.015,0.119l-0.014,0.12l-0.013,0.119l-0.013,0.119l-0.011,0.12l-0.011,0.121l-0.011,0.12l-0.009,0.12l-0.009,0.121l-0.008,0.122l-0.008,0.121l-0.006,0.121l-0.006,0.122l-0.005,0.122l-0.004,0.122l-0.004,0.123l-0.002,0.123l-0.002,0.122l-0.002,0.123l0,0.124l0,0.124l0.002,0.123l0.002,0.122l0.002,0.123l0.004,0.123l0.004,0.122l0.005,0.122l0.006,0.122l0.006,0.121l0.008,0.121l0.008,0.122l0.009,0.121l0.009,0.12l0.011,0.12l0.011,0.121l0.011,0.12l0.013,0.119l0.013,0.119l0.014,0.12l0.015,0.119l0.015,0.118l0.017,0.119l0.017,0.118l0.017,0.118l0.019,0.117l0.019,0.118l0.02,0.117l0.02,0.117l0.021,0.116l0.022,0.117l0.023,0.116l0.023,0.116l0.024,0.115l0.025,0.115l0.026,0.116l0.026,0.115l0.027,0.114l0.027,0.115l0.028,0.113l0.029,0.114l0.03,0.113l0.03,0.114l0.031,0.112l0.032,0.113l0.032,0.112l0.033,0.112l0.033,0.112l0.035,0.111l0.035,0.111l0.035,0.112l0.037,0.11l0.037,0.11l0.037,0.11l0.039,0.11l0.038,0.109l0.04,0.109l0.04,0.109l0.041,0.109l0.042,0.107l0.042,0.108l0.043,0.108l0.043,0.107l0.044,0.107l0.045,0.106l0.045,0.107l0.046,0.105l0.047,0.106l0.047,0.105l0.048,0.105l0.048,0.104l0.049,0.105l0.05,0.104l0.05,0.103l0.051,0.103l0.052,0.103l0.052,0.103l0.053,0.102l0.053,0.102l0.054,0.101l0.054,0.101l0.056,0.101l0.055,0.1l0.057,0.1l0.057,0.1l0.057,0.099l0.058,0.099l0.059,0.099l0.059,0.098l0.06,0.098l0.061,0.097l0.06,0.097l0.062,0.096l0.062,0.097l0.063,0.095l0.063,0.096l0.064,0.095l0.064,0.095l0.065,0.094l0.066,0.094l0.066,0.093l0.066,0.093l0.067,0.093l0.068,0.092l0.068,0.092l0.069,0.091l0.069,0.091l0.07,0.09l0.071,0.091l0.071,0.089l0.071,0.09l0.072,0.088l0.072,0.089l0.074,0.088l0.073,0.087l0.074,0.087l0.074,0.087l0.076,0.086l0.075,0.085l0.076,0.086l0.077,0.085l0.077,0.084l0.077,0.083l0.078,0.084l0.079,0.083l0.079,0.082l0.08,0.082l0.08,0.082l0.08,0.081l0.081,0.08l0.082,0.08l0.082,0.08l0.082,0.079l0.083,0.078l0.083,0.078l0.084,0.078l0.085,0.077l0.084,0.077l0.086,0.076l0.085,0.076l0.086,0.074l0.087,0.075l0.087,0.074l0.088,0.074l0.087,0.073l0.089,0.072l0.089,0.072l0.089,0.072l0.089,0.07l0.09,0.071l0.091,0.069l0.091,0.07l0.091,0.069l0.092,0.068l0.092,0.068l0.093,0.067l0.093,0.066l0.094,0.067l0.093,0.065l0.094,0.065l0.095,0.064l0.095,0.064l0.096,0.063l0.095,0.063l0.096,0.062l0.097,0.062l0.097,0.061l0.098,0.06l0.097,0.06l0.098,0.059l0.099,0.059l0.099,0.058l0.099,0.057l0.1,0.057l0.1,0.057l0.1,0.055l0.101,0.055l0.101,0.055l0.101,0.054l0.102,0.053l0.102,0.053l0.103,0.052l0.103,0.052l0.103,0.051l0.103,0.05l0.104,0.05l0.105,0.049l0.104,0.048l0.105,0.048l0.105,0.047l0.106,0.047l0.106,0.046l0.106,0.045l0.106,0.045l0.107,0.044l0.107,0.043l0.108,0.043l0.108,0.042l0.108,0.042l0.108,0.041l0.109,0.04l0.109,0.04l0.109,0.038l0.11,0.039l0.11,0.037l0.11,0.037l0.111,0.037l0.111,0.035l0.111,0.035l0.111,0.035l0.112,0.033l0.112,0.033l0.112,0.032l0.113,0.032l0.113,0.031l0.113,0.03l0.113,0.03l0.114,0.029l0.114,0.028l0.114,0.028l0.114,0.026l0.115,0.026l0.115,0.026l0.116,0.025l0.115,0.024l0.116,0.023l0.116,0.023l0.116,0.022l0.117,0.021l0.117,0.02l0.117,0.02l0.117,0.019l0.118,0.019l0.118,0.017l0.118,0.017l0.119,0.017l0.118,0.015l0.119,0.015l0.119,0.014l0.12,0.013l0.119,0.013l0.12,0.011l0.12,0.011l0.121,0.011l0.12,0.009l0.121,0.009l0.121,0.008l0.122,0.008l0.121,0.006l0.122,0.006l0.122,0.005l0.122,0.004l0.123,0.004l0.123,0.002l0.122,0.002l0.124,0.002l0.123,0l0.123,0l0.124,-0.002l0.122,-0.002l0.123,-0.002l0.123,-0.004l0.122,-0.004l0.122,-0.005l0.122,-0.006l0.121,-0.006l0.122,-0.008l0.121,-0.008l0.121,-0.009l0.12,-0.009l0.121,-0.011l0.12,-0.011l0.12,-0.011l0.119,-0.013l0.12,-0.013l0.119,-0.014l0.119,-0.015l0.118,-0.015l0.119,-0.017l0.118,-0.017l0.118,-0.017l0.117,-0.019l0.118,-0.019l0.117,-0.02l0.117,-0.02l0.116,-0.021l0.117,-0.022l0.116,-0.023l0.116,-0.023l0.115,-0.024l0.116,-0.025l0.115,-0.026l0.115,-0.026l0.114,-0.026l0.114,-0.028l0.114,-0.028l0.114,-0.029l0.113,-0.03l0.114,-0.03l0.112,-0.031l0.113,-0.032l0.112,-0.032l0.112,-0.033l0.112,-0.033l0.111,-0.035l0.111,-0.035l0.111,-0.035l0.111,-0.037l0.11,-0.037l0.11,-0.037l0.11,-0.039l0.109,-0.038l0.109,-0.04l0.109,-0.04l0.108,-0.041l0.108,-0.042l0.108,-0.042l0.108,-0.043l0.107,-0.043l0.107,-0.044l0.106,-0.045l0.106,-0.045l0.106,-0.046l0.106,-0.047l0.105,-0.047l0.105,-0.048l0.104,-0.048l0.105,-0.049l0.104,-0.05l0.103,-0.05l0.103,-0.051l0.103,-0.052l0.103,-0.052l0.102,-0.053l0.102,-0.053l0.101,-0.054l0.101,-0.055l0.101,-0.055l0.1,-0.055l0.1,-0.057l0.1,-0.057l0.099,-0.057l0.099,-0.058l0.099,-0.059l0.098,-0.059l0.097,-0.06l0.098,-0.061l0.097,-0.06l0.096,-0.062l0.097,-0.062l0.096,-0.063l0.095,-0.063l0.095,-0.064l0.095,-0.064l0.094,-0.065l0.094,-0.066l0.093,-0.066l0.093,-0.066l0.093,-0.067l0.092,-0.068l0.092,-0.068l0.091,-0.069l0.091,-0.07l0.09,-0.069l0.091,-0.071l0.089,-0.07l0.089,-0.072l0.089,-0.072l0.089,-0.072l0.087,-0.073l0.088,-0.074l0.087,-0.074l0.087,-0.075l0.086,-0.074l0.085,-0.076l0.086,-0.076l0.084,-0.077l0.085,-0.077l0.084,-0.078l0.083,-0.078l0.083,-0.078l0.082,-0.079l0.082,-0.08l0.082,-0.08l0.081,-0.08l0.08,-0.081l0.08,-0.082l0.08,-0.082l0.079,-0.082l0.078,-0.083l0.079,-0.084l0.077,-0.083l0.077,-0.084l0.077,-0.085l0.076,-0.086l0.075,-0.085l0.076,-0.086l0.074,-0.087l0.074,-0.087l0.073,-0.087l0.074,-0.088l0.072,-0.089l0.072,-0.089l0.071,-0.089l0.071,-0.089l0.071,-0.091l0.069,-0.09l0.07,-0.091l0.069,-0.091l0.068,-0.092l0.068,-0.092l0.067,-0.093l0.066,-0.093l0.066,-0.093l0.066,-0.094l0.065,-0.094l0.064,-0.095l0.064,-0.095l0.063,-0.096l0.063,-0.095l0.062,-0.097l0.062,-0.096l0.061,-0.097l0.06,-0.098l0.06,-0.097l0.059,-0.098l0.059,-0.099l0.058,-0.099l0.057,-0.099l0.057,-0.099l0.057,-0.101l0.055,-0.1l0.056,-0.101l0.054,-0.101l0.054,-0.101l0.053,-0.102l0.053,-0.103l0.052,-0.102l0.052,-0.103l0.051,-0.103l0.05,-0.103l0.05,-0.104l0.049,-0.105l0.048,-0.104l0.048,-0.105l0.047,-0.105l0.047,-0.106l0.046,-0.105l0.045,-0.107l0.045,-0.106l0.044,-0.107l0.043,-0.107l0.043,-0.108l0.042,-0.108l0.042,-0.107l0.041,-0.109l0.04,-0.109l0.04,-0.109l0.039,-0.109l0.038,-0.11l0.037,-0.11l0.037,-0.11l0.036,-0.11l0.036,-0.112l0.035,-0.111l0.035,-0.111l0.033,-0.112l0.033,-0.112l0.032,-0.112l0.032,-0.113l0.031,-0.112l0.03,-0.113l0.03,-0.114l0.029,-0.114l0.028,-0.113l0.027,-0.115l0.027,-0.114l0.026,-0.115l0.026,-0.116l0.025,-0.115l0.024,-0.115l0.023,-0.116l0.023,-0.116l0.022,-0.117l0.021,-0.116l0.02,-0.117l0.02,-0.117l0.019,-0.118l0.019,-0.117l0.017,-0.118l0.017,-0.118l0.017,-0.119l0.015,-0.119l0.015,-0.118l0.014,-0.119l0.013,-0.12l0.013,-0.119l0.011,-0.12l0.012,-0.121l0.01,-0.12l0.009,-0.121l0.009,-0.12l0.008,-0.121l0.008,-0.122l0.006,-0.121l0.006,-0.122l0.005,-0.122l0.004,-0.122l0.004,-0.123l0.002,-0.123l0.002,-0.122l0.002,-0.124l0,-0.123l0,-0.123l-0.002,-0.124l-0.002,-0.122l-0.002,-0.123l-0.004,-0.123l-0.004,-0.122l-0.005,-0.122l-0.006,-0.122l-0.006,-0.121l-0.008,-0.122l-0.008,-0.121l-0.009,-0.12l-0.009,-0.121l-0.01,-0.12l-0.012,-0.121l-0.011,-0.12l-0.013,-0.119l-0.013,-0.12l-0.014,-0.119l-0.015,-0.118l-0.015,-0.119l-0.017,-0.119l-0.017,-0.118l-0.017,-0.118l-0.019,-0.117l-0.019,-0.118l-0.02,-0.117l-0.02,-0.117l-0.021,-0.116l-0.022,-0.117l-0.023,-0.116l-0.023,-0.116l-0.024,-0.115l-0.025,-0.115l-0.026,-0.116l-0.026,-0.115l-0.027,-0.114l-0.027,-0.115l-0.028,-0.113l-0.029,-0.114l-0.03,-0.114l-0.03,-0.113l-0.031,-0.112l-0.032,-0.113l-0.032,-0.112l-0.033,-0.112l-0.033,-0.112l-0.035,-0.111l-0.035,-0.111l-0.036,-0.112l-0.036,-0.11l-0.037,-0.11l-0.037,-0.11l-0.038,-0.11l-0.039,-0.109l-0.04,-0.109l-0.04,-0.109l-0.041,-0.109l-0.042,-0.107l-0.042,-0.108l-0.043,-0.108l-0.043,-0.107l-0.044,-0.107l-0.045,-0.106l-0.045,-0.107l-0.046,-0.105l-0.047,-0.106l-0.047,-0.105l-0.048,-0.105l-0.048,-0.104l-0.049,-0.105l-0.05,-0.104l-0.05,-0.103l-0.051,-0.103l-0.052,-0.103l-0.052,-0.102l-0.053,-0.103l-0.053,-0.102l-0.054,-0.101l-0.054,-0.101l-0.056,-0.101l-0.055,-0.1l-0.057,-0.101l-0.057,-0.099l-0.057,-0.099l-0.058,-0.099l-0.059,-0.099l-0.059,-0.098l-0.06,-0.097l-0.06,-0.098l-0.061,-0.097l-0.062,-0.096l-0.062,-0.097l-0.063,-0.095l-0.063,-0.096l-0.064,-0.095l-0.064,-0.095l-0.065,-0.094l-0.066,-0.094l-0.066,-0.093l-0.066,-0.093l-0.067,-0.093l-0.068,-0.092l-0.068,-0.092l-0.069,-0.091l-0.07,-0.091l-0.069,-0.09l-0.071,-0.091l-0.071,-0.089l-0.071,-0.089l-0.072,-0.089l-0.072,-0.089l-0.074,-0.088l-0.073,-0.087l-0.074,-0.087l-0.074,-0.087l-0.076,-0.086l-0.075,-0.085l-0.076,-0.086l-0.077,-0.085l-0.077,-0.084l-0.077,-0.083l-0.079,-0.084l-0.078,-0.083l-0.079,-0.082l-0.08,-0.082l-0.08,-0.082l-0.08,-0.081l-0.081,-0.08l-0.082,-0.08l-0.082,-0.08l-0.082,-0.079l-0.083,-0.078l-0.083,-0.078l-0.084,-0.078l-0.085,-0.077l-0.084,-0.077l-0.086,-0.076l-0.085,-0.076l-0.086,-0.074l-0.087,-0.075l-0.087,-0.074l-0.088,-0.074l-0.087,-0.072l-0.088,-0.073l-0.09,-0.072l-0.089,-0.072l-0.089,-0.07l-0.091,-0.071l-0.09,-0.07l-0.091,-0.069l-0.091,-0.069l-0.092,-0.068l-0.092,-0.068l-0.093,-0.067l-0.093,-0.066l-0.093,-0.066l-0.094,-0.066l-0.094,-0.065l-0.095,-0.064l-0.095,-0.064l-0.095,-0.063l-0.096,-0.063l-0.097,-0.062l-0.096,-0.062l-0.097,-0.06l-0.098,-0.061l-0.097,-0.06l-0.098,-0.059l-0.099,-0.059l-0.099,-0.058l-0.099,-0.057l-0.1,-0.057l-0.1,-0.057l-0.1,-0.055l-0.101,-0.055l-0.101,-0.055l-0.101,-0.054l-0.102,-0.053l-0.102,-0.053l-0.103,-0.052l-0.103,-0.052l-0.103,-0.051l-0.103,-0.05l-0.104,-0.05l-0.104,-0.049l-0.105,-0.048l-0.105,-0.048l-0.105,-0.047l-0.106,-0.047l-0.106,-0.046l-0.106,-0.045l-0.106,-0.045l-0.107,-0.044l-0.107,-0.043l-0.108,-0.043l-0.108,-0.042l-0.108,-0.042l-0.108,-0.041l-0.109,-0.04l-0.109,-0.04l-0.109,-0.038l-0.11,-0.039l-0.11,-0.037l-0.11,-0.037l-0.111,-0.037l-0.111,-0.035l-0.111,-0.035l-0.111,-0.035l-0.112,-0.033l-0.112,-0.033l-0.112,-0.032l-0.113,-0.032l-0.112,-0.031l-0.114,-0.03l-0.113,-0.03l-0.114,-0.029l-0.114,-0.028l-0.114,-0.028l-0.114,-0.026l-0.115,-0.026l-0.115,-0.026l-0.116,-0.025l-0.115,-0.024l-0.116,-0.023l-0.116,-0.023l-0.117,-0.022l-0.116,-0.021l-0.117,-0.02l-0.117,-0.02l-0.118,-0.019l-0.117,-0.019l-0.118,-0.017l-0.118,-0.017l-0.119,-0.017l-0.118,-0.015l-0.119,-0.015l-0.119,-0.014l-0.12,-0.013l-0.119,-0.013l-0.12,-0.011l-0.12,-0.011l-0.121,-0.011l-0.12,-0.009l-0.121,-0.009l-0.121,-0.008l-0.122,-0.008l-0.121,-0.006l-0.122,-0.006l-0.122,-0.005l-0.122,-0.004l-0.123,-0.004l-0.122,-0.002l-0.123,-0.002l-0.124,-0.002l-0.123,0l-0.123,0Z" style="fill:#fff;"/><path d="M29.044,4.447c3.925,-2.799 8.728,-4.447 13.912,-4.447c13.246,0 24,10.754 24,24c0,13.246 -10.754,24 -24,24c-5.184,0 -9.987,-1.648 -13.912,-4.447c3.529,-1.826 7.499,-2.581 10.59,-5.939c3.104,-3.372 5.322,-9.352 5.322,-13.614c0,-4.69 -2.686,-11.039 -6.282,-14.611c-2.927,-2.907 -6.456,-3.3 -9.63,-4.942Z" style="fill:#fff;"/></g></g></svg>